<svg id="Layer_1" data-name="Layer 1" xmlns="http://www.w3.org/2000/svg" viewBox="0 0 1405.79 536.49"><defs><style>.cls-1{fill:#333;}.cls-2{fill:#fff;}.cls-3,.cls-4{fill:#e63375;}.cls-3,.cls-5{stroke:#e63375;stroke-miterlimit:10;}.cls-5{fill:none;stroke-width:7px;}</style></defs><title>Learning hub logo white</title><line class="cls-1" x1="67.98" y1="98.47" x2="248.42" y2="13.61"/><path class="cls-1" d="M242,0,74.61,78.73V112L254.82,27.22Z"/><line class="cls-1" x1="236.75" y1="13.61" x2="417.19" y2="98.47"/><polygon class="cls-1" points="243.15 0 230.35 27.23 410.64 112.01 410.8 78.84 243.15 0"/><path class="cls-2" d="M133.33,354.39V241.72c0-30-5.85-44.83-39-44.83-33.52,0-40.93,14-40.93,44.83L53,354.39H0V78.77H53V177c5.46-10.92,23.78-25.34,56.92-25.34,63.15,0,76.8,39,76.8,95.12v107.6Z"/><path class="cls-2" d="M409,357.51c0,38.59-14,78-94.34,78-75.24,0-94-28.85-94-67.84h53.41c1.55,15.21,4.28,26.9,40.93,26.9,34.7,0,40.54-13.25,40.54-32.74V333.34c-9.35,12.47-25,24.17-56.13,24.17-62.77,0-76.8-35.09-76.8-91.23V154.79h53V271c0,28.07,5.85,42.1,39.38,42.1,33.14,0,40.54-16,40.54-44.83V154.79H409Z"/><path class="cls-2" d="M534.09,356.73c-65.88,0-95.51-26.12-94.34-76.8h28.46c-.39,33.91,19.1,53,65.49,53,42.5,0,56.53-16.38,56.92-31.58,2-51.85-146.19-20.66-147-91.23-.78-33.91,24.17-57.69,85-57.69,63.16,0,85.77,30,85.77,73.68H587.11c-.78-31.19-16-50.29-59.25-50.29-42.11,0-55.75,14.42-55,32.75.78,45.61,146.58,18.71,146.58,91.22C619.47,328.27,595.69,356.73,534.09,356.73Z"/><path class="cls-2" d="M693.93,179v117c0,24.56,10.13,35.87,48.34,35.87,4.29,0,8.58,0,13.64-.39v24.17c-6.23.39-12.08.78-17.54.78-51.85,0-74.07-17.16-74.07-60.43V179H637V160.63L664.3,154V104.89h28.46v49.9h63.15V179Z"/><path class="cls-2" d="M811.66,244.84V354.39H782.42V154.79h13.26l9,34.3c7.79-20.27,28.84-38.2,76-37.42v26.51C823,175.45,811.66,201.57,811.66,244.84Z"/><path class="cls-2" d="M979.69,356.73c-81.48,0-99.8-49.51-99.8-103.31,0-51.46,20.27-101,99.41-101,69.78,0,90.44,44.05,90.44,99.41,0,5.46,0,9.35-.39,14.81H910.68c2,39.38,19.89,67.06,68.23,67.06,41.71,0,56.92-20.67,60.42-41.72h30.41C1066.62,326.32,1043.62,356.73,979.69,356.73ZM977,175.84c-50.68,0-65.11,31.58-66.28,67.44h128.65C1039.33,205.08,1022.18,175.84,977,175.84Z"/><path class="cls-2" d="M1189,356.73c-81.47,0-99.8-49.51-99.8-103.31,0-51.46,20.28-101,99.41-101,69.79,0,90.45,44.05,90.45,99.41,0,5.46,0,9.35-.39,14.81H1120c2,39.38,19.88,67.06,68.22,67.06,41.72,0,56.92-20.67,60.43-41.72h30.41C1276,326.32,1253,356.73,1189,356.73Zm-2.72-180.89c-50.69,0-65.11,31.58-66.28,67.44h128.65C1248.68,205.08,1231.53,175.84,1186.31,175.84Z"/><path class="cls-2" d="M1343.81,179v117c0,24.56,10.13,35.87,48.34,35.87,4.29,0,8.58,0,13.64-.39v24.17c-6.23.39-12.08.78-17.54.78-51.85,0-74.07-17.16-74.07-60.43V179h-27.29V160.63l27.29-6.62V104.89h28.46v49.9h63.15V179Z"/><path class="cls-2" d="M449,391.89h7.12V496.23h72.45v6.2H449Z"/><path class="cls-2" d="M539.73,464.34c.46,19.82,13.78,34.37,37.78,34.37,24.77,0,30.8-15.64,33.74-22.6h7.13c-6.66,20-20.44,28.79-41.65,28.79-27.09,0-44.12-16.25-44.12-42.73,0-16.56,10.37-41.49,44.28-41.49,27.71,0,43.19,18.27,43.65,43.66Zm72.76-6.19c-2.94-21.67-18.26-31.27-36.38-31.27-20.59,0-33.28,12.23-36.38,31.27Z"/><path class="cls-2" d="M630.77,447.62c2.47-20,13-26.94,36.84-26.94,22.91,0,36.38,5.42,36.38,23.23v44.43c0,5.88-.15,9.44,5.27,9.44a23.43,23.43,0,0,0,7-1.24v6.2a27.22,27.22,0,0,1-8.67,1.23c-9.75,0-9.75-6.81-9.75-17.33h-.31c-8.67,16.25-27.4,18.26-37.77,18.26-6.82,0-32.52,0-32.52-24.15,0-16.1,13.78-22,29.88-22.76l27.72-1.85c8.2-.47,12.07-1.71,12.07-11.31,0-10.68-6-17.95-29.41-17.95-20.9,0-27.56,6.5-29.57,20.74Zm66.1,10.53h-.31c-1.7,1.86-5.88,3.71-12.69,4.18l-26.79,1.86c-13.16.77-22.75,4.8-22.75,16.56,0,16.1,16.41,18,25.85,18,15.79,0,36.69-7,36.69-26Z"/><path class="cls-2" d="M723.66,423.16h7.12v18.73h.31c5.42-14.08,17.34-21.21,32.82-21.21a19.4,19.4,0,0,1,5.88.93v7.12c-1.7-.62-3.71-.92-8.2-.92-20.59,0-30.81,15.63-30.81,31.73v42.89h-7.12Z"/><path class="cls-2" d="M778.15,423.16h7.12V439h.31c5-9.44,15.49-18.27,33.44-18.27,36.39,0,36.39,23.38,36.39,32.82v48.93h-7.13V453.81c0-16.1-6-26.93-29.41-26.93s-33.6,14.39-33.6,29.26v46.29h-7.12Z"/><path class="cls-2" d="M873.37,391.89h7.12V408.3h-7.12Zm0,31.27h7.12v79.27h-7.12Z"/><path class="cls-2" d="M898.45,423.16h7.12V439h.31c5-9.44,15.48-18.27,33.44-18.27,36.38,0,36.38,23.38,36.38,32.82v48.93h-7.12V453.81c0-16.1-6-26.93-29.42-26.93s-33.59,14.39-33.59,29.26v46.29h-7.12Z"/><path class="cls-2" d="M1068.9,423.16H1076v75.4c0,17.95-6.65,37.93-43.34,37.93-24.77,0-38.4-7.28-41-26.63h7.12c1.7,12.54,10.68,20.43,33.91,20.43,30.8,0,36.22-16.72,36.22-31.42V482.45h-.31c-7,13.16-20.43,19.05-37.15,19.05-30.81,0-43-19.66-43-40.87,0-20.59,12.85-39.95,43.19-39.95,14.09,0,29.57,4,37,18.43l.31.15Zm-73.38,37.16c0,22.75,13.16,35,36.85,35,20.59,0,36.53-11,36.53-35.15,0-21.05-13.93-33.28-37.31-33.28C1012.86,426.88,995.52,437.4,995.52,460.32Z"/><path class="cls-2" d="M1127.74,391.89h7.12V439h.31c4.95-9.44,15.48-18.27,33.44-18.27,36.38,0,36.38,23.38,36.38,32.82v48.93h-7.12V453.81c0-16.1-6-26.93-29.42-26.93-23.53,0-33.59,14.39-33.59,29.26v46.29h-7.12Z"/><path class="cls-2" d="M1299.58,502.43h-7.12V486.64h-.31c-5,9.44-15.48,18.26-33.44,18.26-36.38,0-36.38-23.22-36.38-32.82V423.16h7.12v48.61c0,16.1,6,26.94,29.42,26.94,23.53,0,33.59-14.4,33.59-29.26V423.16h7.12Z"/><path class="cls-2" d="M1316.93,391.89h7.12V440h.31c4.49-8.67,15.64-19.36,35.14-19.36,24.15,0,42.27,16.72,42.27,42,0,22.29-14.4,42.26-42.27,42.26-20.43,0-31.43-10.37-35.14-19.81h-.31v17.34h-7.12Zm77.71,70.59c0-24.15-17-35.6-35.29-35.6-16.1,0-36.23,8.82-36.23,36.69,0,14.24,7.43,35.14,37.16,35.14C1379.94,498.71,1394.64,485.24,1394.64,462.48Z"/><circle class="cls-3" cx="321.38" cy="117.01" r="10.54"/><path class="cls-4" d="M366,222.06a41.81,41.81,0,0,1-12.92-3.43,44.44,44.44,0,0,1-10.1-6.48,57.36,57.36,0,0,1-12.55-15.76,89.6,89.6,0,0,1-6.9-16.28,125.61,125.61,0,0,1-3.93-16.18,174.05,174.05,0,0,1-2.47-31.82c.07-5.24.34-10.45.76-15.6s1.08-10.27,1.85-15.34c.73,5.08,1.59,10.1,2.64,15.07s2.28,9.86,3.67,14.67a161,161,0,0,0,10.68,27.48,103.29,103.29,0,0,0,7.15,12.12,62.92,62.92,0,0,0,8.37,10,26.17,26.17,0,0,0,8.7,5.8,8.92,8.92,0,0,0,3.35.52,4.48,4.48,0,0,0,2-.74Z"/><path class="cls-5" d="M322.44,121.81c-7.23-22.91-11.08-51.47,0-78.9.64-1.6,1.33-3.16,2-4.68"/></svg>