<svg id="Layer_1" data-name="Layer 1" xmlns="http://www.w3.org/2000/svg" viewBox="0 0 500 500"><defs><style>.cls-1,.cls-3{fill:none;stroke-linecap:round;}.cls-1,.cls-2,.cls-3{stroke:#0fafd4;}.cls-1{stroke-linejoin:round;stroke-width:11px;}.cls-2{fill:#0fafd4;stroke-width:3px;}.cls-2,.cls-3{stroke-miterlimit:10;}.cls-3{stroke-width:19px;}</style></defs><title>20180125 appointments</title><path class="cls-1" d="M466.58,81.22H405.63c.31,15.11-13.77,27.87-28.46,27.87-15.75,0-27.45-12.71-28.41-27.87h-69.7c.31,15.11-13.76,27.87-28.45,27.87-15.75,0-27.45-12.71-28.41-27.87H156c.3,15.11-13.77,27.87-28.46,27.87-15.75,0-27.45-12.71-28.41-27.87H39.29a28.53,28.53,0,0,0-28.45,28.45V447.55A28.53,28.53,0,0,0,39.29,476H466.58A28.53,28.53,0,0,0,495,447.55V109.67A28.53,28.53,0,0,0,466.58,81.22Z"/><rect class="cls-2" x="165.75" y="159.6" width="81.36" height="63.83" rx="12" ry="12"/><rect class="cls-2" x="258.57" y="159.6" width="81.36" height="63.83" rx="12" ry="12"/><rect class="cls-2" x="351.39" y="159.6" width="81.36" height="63.83" rx="12" ry="12"/><rect class="cls-2" x="72.93" y="233.14" width="81.36" height="63.83" rx="12" ry="12"/><rect class="cls-2" x="165.75" y="233.14" width="81.36" height="63.83" rx="12" ry="12"/><rect class="cls-2" x="258.57" y="233.14" width="81.36" height="63.83" rx="12" ry="12"/><rect class="cls-2" x="351.39" y="233.14" width="81.36" height="63.83" rx="12" ry="12"/><rect class="cls-2" x="72.93" y="306.66" width="81.4" height="63.86" rx="12" ry="12"/><rect class="cls-2" x="165.8" y="306.66" width="81.4" height="63.86" rx="12" ry="12"/><rect class="cls-2" x="258.67" y="306.66" width="81.4" height="63.86" rx="12" ry="12"/><rect class="cls-2" x="351.53" y="306.66" width="81.4" height="63.86" rx="12" ry="12"/><rect class="cls-2" x="72.93" y="380.21" width="81.4" height="63.86" rx="12" ry="12"/><rect class="cls-2" x="165.8" y="380.21" width="81.4" height="63.86" rx="12" ry="12"/><line class="cls-3" x1="127.61" y1="81.22" x2="127.61" y2="40"/><line class="cls-3" x1="251.85" y1="82.38" x2="251.85" y2="41.16"/><line class="cls-3" x1="377.25" y1="82.38" x2="377.25" y2="41.16"/></svg>