<svg id="Layer_1" data-name="Layer 1" xmlns="http://www.w3.org/2000/svg" viewBox="0 0 500 500"><defs><style>.cls-1,.cls-3{fill:#0fafd4;}.cls-2{fill:#fff;}.cls-3{font-size:127.01px;font-family:Roboto-Bold, Roboto;font-weight:700;}</style></defs><title>20180125 buyer</title><path class="cls-1" d="M90.85,389.54v75a5.82,5.82,0,0,0,6,6H379.42a5.83,5.83,0,0,0,6-6V389.11a82.32,82.32,0,0,0-82.27-82.27H286.93V288.51c7.24-4.26,14.91-9.8,23-15.77a56.76,56.76,0,0,0,23.45-41.35A35.4,35.4,0,0,0,366.21,196a34.85,34.85,0,0,0-8.1-22.59V103.94c0-49.45-40.49-89.94-89.94-89.94H209.35A48,48,0,0,0,161.6,56.2h-1.7a35.29,35.29,0,0,0-35.38,35.38v76.3a35.45,35.45,0,0,0,18.33,63.94,59.67,59.67,0,0,0,23.44,41.35c8.1,6,15.78,11.08,23,15.77v18.33h-16.2A82.31,82.31,0,0,0,90.85,389.54Zm95.9-69.91h6.82l35,19.18-24.3,24.3L186.75,319.2Zm14.5-9.8V296.19q24.28,14.06,37.08,14.06t37.09-14.06v13.64l-37.09,20.46ZM142.85,173v46.88a23.83,23.83,0,0,1-20.46-23.44C122.39,184.5,131.34,174.27,142.85,173Zm191,0a23.66,23.66,0,0,1,0,46.88ZM238.76,298.32c-11.08,0-34.53-12.79-64.79-35a44.84,44.84,0,0,1-18.76-36.66V137.62A51.49,51.49,0,0,1,206.79,86H270.3a51.49,51.49,0,0,1,51.58,51.58V226.7a46,46,0,0,1-18.76,36.66C272.86,285.53,249.84,298.32,238.76,298.32Zm51.15,20.88-17.48,44.33-24.72-24.72,35.38-19.61Z"/><polygon class="cls-2" points="296.82 240.08 327.41 280.49 317.58 284.86 317.58 295.78 321.94 300.15 317.58 305.61 321.94 317.62 260.78 432.3 264.06 456.33 274.98 474.89 290.27 482.54 427.88 482.54 448.64 466.16 456.28 436.67 438.81 399.54 391.84 317.62 399.49 308.88 395.12 302.33 398.4 291.41 396.21 282.67 390.75 280.49 391.84 273.94 419.15 242.26 418.06 237.9 406.04 240.08 390.75 233.53 382.01 229.16 371.09 235.71 359.08 242.26 343.79 233.53 333.96 229.16 320.85 234.62 316.48 238.99 303.38 238.99 296.82 240.08"/><path class="cls-1" d="M453.33,418.06l-57.15-98.85a12.55,12.55,0,0,0,6.38-11,13,13,0,0,0-3.92-9.32,12.76,12.76,0,0,0-4.91-21.34l27.72-32.14a6.73,6.73,0,0,0,0-8.83,6.51,6.51,0,0,0-8.83-1.22,10.09,10.09,0,0,1-6.13,1.72c-4.66,0-6.87-2-9.82-4.67-3.18-2.94-7.11-6.37-14.47-6.37s-11.28,3.68-14.47,6.37c-2.7,2.7-5.15,4.67-9.81,4.67s-6.87-2-9.81-4.67c-3.19-2.94-7.11-6.37-14.47-6.37s-11.28,3.68-14.47,6.37c-2.7,2.7-5.15,4.67-9.81,4.67a10.1,10.1,0,0,1-6.14-1.72,6.54,6.54,0,0,0-8.83,1.22,6.73,6.73,0,0,0,0,8.83l27.72,32.14a12.65,12.65,0,0,0-8.83,12,13,13,0,0,0,3.92,9.33,12.55,12.55,0,0,0-3.92,9.32,13.08,13.08,0,0,0,6.38,11l-56.17,98.85a46.23,46.23,0,0,0,40,69.41H413.11a46.44,46.44,0,0,0,40.22-69.41ZM326.77,283.89h32.38a3.43,3.43,0,1,0,0-6.86H331.43L301,241.71a18.54,18.54,0,0,0,9.07,2.45c7.36,0,11.28-3.68,14.47-6.38,2.7-2.7,5.15-4.66,9.81-4.66s6.87,2,9.81,4.66c3.19,2.94,7.12,6.38,14.48,6.38s11.28-3.68,14.47-6.38c2.7-2.7,5.15-4.66,9.81-4.66s6.87,2,9.81,4.66c2.7,2.45,6.13,5.64,11.77,6.38.74,0,1.72.24,2.7.24A16.25,16.25,0,0,0,416.3,242L385.39,277H371.17a3.43,3.43,0,1,0,0,6.86h18.88a5.89,5.89,0,1,1,0,11.78H326.77a5.89,5.89,0,1,1,0-11.78ZM447.2,460.74a39,39,0,0,1-34.09,19.62H303.71a39.37,39.37,0,0,1-34.09-59.11l58.13-100.56h2.94a3.36,3.36,0,0,0,3.44-3.44h0a3.35,3.35,0,0,0-3.44-3.43H327A5.89,5.89,0,0,1,327,302H390.3a5.89,5.89,0,0,1,0,11.78H357.68a3.35,3.35,0,0,0-3.44,3.43h0a3.36,3.36,0,0,0,3.44,3.44h31.39L447.2,421.25A39.22,39.22,0,0,1,447.2,460.74Z"/><path class="cls-1" d="M329,345a3.3,3.3,0,0,0-4.66,1.22l-6.38,11a3.29,3.29,0,0,0,1.23,4.66,4.43,4.43,0,0,0,1.71.49,3.4,3.4,0,0,0,2.95-1.71l6.37-11A3.34,3.34,0,0,0,329,345Z"/><path class="cls-1" d="M314.26,370.72A3.29,3.29,0,0,0,309.6,372l-25.75,44.64a3.3,3.3,0,0,0,1.22,4.66,4.66,4.66,0,0,0,1.72.49,3.4,3.4,0,0,0,2.94-1.72l25.76-44.64A3.24,3.24,0,0,0,314.26,370.72Z"/><path class="cls-1" d="M344.92,314.06H341a3.35,3.35,0,0,0-3.44,3.44h0a3.35,3.35,0,0,0,3.44,3.43h3.92a3.35,3.35,0,0,0,3.43-3.43h0A3.35,3.35,0,0,0,344.92,314.06Z"/><text class="cls-3" transform="translate(323.41 453.58)">£</text></svg>