<?xml version="1.0" encoding="utf-8"?>
<!-- Generator: Adobe Illustrator 22.0.1, SVG Export Plug-In . SVG Version: 6.00 Build 0)  -->
<svg version="1.1" id="Layer_1" xmlns="http://www.w3.org/2000/svg" xmlns:xlink="http://www.w3.org/1999/xlink" x="0px" y="0px"
	 viewBox="0 0 500 500" style="enable-background:new 0 0 500 500;" xml:space="preserve">
<style type="text/css">
	.st0{fill:#0FAFD4;}
	.st1{enable-background:new    ;}
</style>
<title>20180125 buyer</title>
<path class="st0" d="M358.1,173.4v-69.5c0-49.5-40.5-89.9-89.9-89.9h-58.8c-24.3-0.1-44.8,18.1-47.8,42.2h-1.7
	c-19.5,0-35.3,15.7-35.4,35.2c0,0.1,0,0.1,0,0.2v76.3c-15.8,11.6-19.2,33.8-7.6,49.6c6.1,8.4,15.6,13.6,26,14.4
	c1.7,16.4,10.2,31.4,23.4,41.3c8.1,6,15.8,11.1,23,15.8v18.3h-16.2c-45.4,0-82.2,36.9-82.2,82.3v75c-0.1,3.2,2.4,5.9,5.6,6
	c0.1,0,0.2,0,0.4,0h173.8c-0.4-0.9-0.8-1.8-1.1-2.6c-1.4-1.3-3-2.3-4.3-3.6c-1.7-1.7-2.5-4-2.6-6.4c0-0.1,0-0.2,0-0.3
	c-9-13.9-3.7-28,5.7-39.3c1.3-7.8,7.4-12.9,10.6-20.1c1.2-2.8,0.7-6.3,3.7-6.5c3.5-5.7,7.1-11.5,10.4-17.4
	c3.1-5.6,6.5-10.9,10.2-16.1c0.8-1.1,1.5-2.2,2.3-3.3c0.1-0.1,0.2-0.3,0.2-0.4c1.9-4.8,4-9.4,7-13.6c0-0.1,0.1-0.2,0.1-0.2
	c0.9-2,2.4-3.2,4-3.9c0.1,0,0.1-0.1,0.2-0.1c0.1-0.1,0.1-0.2,0.2-0.4c2.4-4.7,4.9-9.2,7.7-13.6c-2.2-2.2-2.9-5.1-2.5-7.8
	c-0.2-0.2-0.5-0.5-0.7-0.7c-1.5-1.8-2.5-3.4-3.2-5.6c0-0.1,0-0.2-0.1-0.3c-5-1-10.2-1.5-15.4-1.5h-16.2v-18.3
	c7.2-4.3,14.9-9.8,23-15.8c2.7-1.9,5.2-4.1,7.5-6.4c-1.5-1.8-3.5-3.5-4.8-5.8c-0.8-1.4-1.4-3-1.6-4.5c-2.3,2.7-4.9,5.2-7.9,7.3
	c-30.3,22.2-53.3,35-64.4,35s-34.5-12.8-64.8-35c-11.8-8.5-18.8-22.1-18.8-36.7v-89c-0.1-28.4,22.9-51.5,51.4-51.6
	c0.1,0,0.1,0,0.2,0h63.5c28.4,0,51.5,23,51.6,51.4c0,0.1,0,0.1,0,0.2v89.1c0,3.2-0.4,6.3-1.1,9.3c0,0,0,0,0,0c1.4-1,2.9-1.9,4.4-2.5
	c1.3-2.6,3.9-4.6,7.7-4.6c2.2,0,4.1,0.7,5.4,1.8c16-3.5,27.8-17.8,27.8-34.7C366.3,187.7,363.4,179.7,358.1,173.4z M289.9,319.2
	l-17.5,44.3l-24.7-24.7l35.4-19.6H289.9z M201.3,296.2c16.2,9.4,28.5,14.1,37.1,14.1s20.9-4.7,37.1-14.1v13.6l-37.1,20.5l-37.1-20.5
	V296.2z M228.6,338.8l-24.3,24.3l-17.3-43.5h6.6L228.6,338.8z M142.9,219.9c-11.7-1.7-20.4-11.6-20.5-23.4c0-11.9,9-22.2,20.5-23.4
	V219.9z M354.1,199.7c-1.4,10.5-9.7,18.8-20.2,20.2V173C346.8,174.8,355.8,186.7,354.1,199.7z"/>
<path class="st0" d="M453.3,418.1l-57.1-98.9c4-2.2,6.4-6.4,6.4-11c0-3.5-1.4-6.9-3.9-9.3c5.1-4.9,5.2-13,0.4-18
	c-1.5-1.5-3.3-2.7-5.3-3.3l27.7-32.1c2.2-2.5,2.2-6.3,0-8.8c-2.2-2.7-6-3.2-8.8-1.2c-1.8,1.2-4,1.8-6.1,1.7c-4.7,0-6.9-2-9.8-4.7
	c-3.2-2.9-7.1-6.4-14.5-6.4s-11.3,3.7-14.5,6.4c-2.7,2.7-5.1,4.7-9.8,4.7s-6.9-2-9.8-4.7c-3.2-2.9-7.1-6.4-14.5-6.4
	s-11.3,3.7-14.5,6.4c-2.7,2.7-5.1,4.7-9.8,4.7c-2.2,0.1-4.3-0.5-6.1-1.7c-2.8-2-6.7-1.4-8.8,1.2c-2.2,2.5-2.2,6.3,0,8.8l27.7,32.1
	c-5.2,1.7-8.8,6.5-8.8,12c0,3.5,1.4,6.9,3.9,9.3c-2.6,2.4-4,5.8-3.9,9.3c0.1,4.5,2.5,8.7,6.4,11L263.5,418
	c-12.8,22.1-5.3,50.4,16.8,63.2c7,4.1,15,6.2,23.2,6.2h109.6c25.6-0.1,46.4-20.9,46.3-46.6C459.4,432.9,457.3,425,453.3,418.1
	L453.3,418.1z M326.8,283.9h32.4c1.9,0,3.4-1.5,3.4-3.4c0-1.9-1.5-3.4-3.4-3.4c0,0,0,0,0,0h-27.7L301,241.7c2.8,1.6,5.9,2.4,9.1,2.4
	c7.4,0,11.3-3.7,14.5-6.4c2.7-2.7,5.1-4.7,9.8-4.7s6.9,2,9.8,4.7c3.2,2.9,7.1,6.4,14.5,6.4s11.3-3.7,14.5-6.4
	c2.7-2.7,5.1-4.7,9.8-4.7s6.9,2,9.8,4.7c2.7,2.4,6.1,5.6,11.8,6.4c0.7,0,1.7,0.2,2.7,0.2c3.2,0.1,6.4-0.7,9.1-2.4l-30.9,35h-14.2
	c-1.9,0-3.4,1.5-3.4,3.4c0,1.9,1.5,3.4,3.4,3.4c0,0,0,0,0,0h18.9c3.3,0,5.9,2.6,5.9,5.9s-2.6,5.9-5.9,5.9c0,0,0,0,0,0h-63.3
	c-3.3,0-5.9-2.6-5.9-5.9S323.5,283.9,326.8,283.9C326.8,283.9,326.8,283.9,326.8,283.9L326.8,283.9z M447.2,460.7
	c-7,12.2-20,19.7-34.1,19.6H303.7c-21.7,0-39.4-17.6-39.4-39.3c0-6.9,1.8-13.8,5.3-19.8l58.1-100.6h2.9c1.9,0,3.4-1.4,3.4-3.3
	c0-0.1,0-0.1,0-0.2l0,0c0-1.8-1.4-3.4-3.3-3.4c-0.1,0-0.1,0-0.2,0H327c-3.3,0-5.9-2.6-5.9-5.9s2.6-5.9,5.9-5.9h63.3
	c3.3,0,5.9,2.6,5.9,5.9c0,3.3-2.6,5.9-5.9,5.9h-32.6c-1.8-0.1-3.4,1.4-3.4,3.3c0,0.1,0,0.1,0,0.2l0,0c0,1.9,1.4,3.4,3.3,3.4
	c0.1,0,0.1,0,0.2,0h31.4l58.1,100.6C454.3,433.5,454.3,448.5,447.2,460.7z"/>
<path class="st0" d="M329,345c-1.5-1-3.6-0.5-4.6,1c0,0.1-0.1,0.1-0.1,0.2l-6.4,11c-1,1.5-0.5,3.6,1,4.5c0.1,0,0.1,0.1,0.2,0.1
	c0.5,0.3,1.1,0.4,1.7,0.5c1.2,0,2.3-0.7,3-1.7l6.4-11c1-1.6,0.5-3.6-1.1-4.6C329.1,345,329,345,329,345z"/>
<path class="st0" d="M314.3,370.7c-1.5-1-3.6-0.5-4.5,1.1c0,0.1-0.1,0.1-0.1,0.2l-25.8,44.6c-1,1.5-0.5,3.6,1,4.6
	c0.1,0,0.1,0.1,0.2,0.1c0.5,0.3,1.1,0.4,1.7,0.5c1.2,0,2.3-0.7,2.9-1.7l25.8-44.6c1-1.5,0.6-3.5-0.9-4.5
	C314.5,370.9,314.4,370.8,314.3,370.7z"/>
<path class="st0" d="M344.9,314.1H341c-1.8-0.1-3.4,1.4-3.4,3.3c0,0.1,0,0.1,0,0.2l0,0c0,1.8,1.4,3.4,3.3,3.4c0.1,0,0.1,0,0.2,0h3.9
	c1.8,0,3.4-1.4,3.4-3.3c0-0.1,0-0.1,0-0.2l0,0c0.1-1.8-1.4-3.4-3.3-3.4C345,314.1,345,314.1,344.9,314.1z"/>
<g class="st1">
	<path class="st0" d="M329.3,407.6h8c-3.9-6.2-7-12.8-7-20.4c0-18.2,14.4-26.2,29-26.2c18.8,0,29.8,11.3,29.5,30.1h-8
		c0-13.7-7.2-23.4-21.5-23.4c-10.7,0-21,6.4-21,19.9c0,8.9,4.4,12.4,7.5,19.9h20.3v4.1h-18c1.9,3,3,8.8,3,12.3c0,9.4-7,17.8-14,23.1
		l0.3,0.3c3.7-1.9,7.9-3.8,12.3-3.8c5.6,0,9.5,1.1,13,2.5c3.6,1.4,6.7,2.7,10.9,2.7c5.5,0,11.1-3.2,14.6-7.1l4.1,6.1
		c-5.6,5-10.9,7.7-18.5,7.7c-11.1,0-16-5.2-26.3-5.2c-6.5,0-8.9,2.2-14,5.2l-4.6-6.9c7.5-6.2,14.2-13.5,14.2-23.6
		c0-3.9-1.5-9.9-3.6-13.3h-10.3V407.6z"/>
</g>
</svg>
