<?xml version="1.0" encoding="utf-8"?>
<!-- Generator: Adobe Illustrator 22.0.1, SVG Export Plug-In . SVG Version: 6.00 Build 0)  -->
<svg version="1.1" xmlns="http://www.w3.org/2000/svg" xmlns:xlink="http://www.w3.org/1999/xlink" x="0px" y="0px"
	 viewBox="0 0 495.2 467.2" style="enable-background:new 0 0 495.2 467.2;" xml:space="preserve">
<style type="text/css">
	.st0{fill:none;stroke:#0FAFD4;stroke-width:11;stroke-linecap:round;stroke-linejoin:round;}
	.st1{fill:#0FAFD4;stroke:#0FAFD4;stroke-width:3;stroke-miterlimit:10;}
	.st2{fill:none;stroke:#0FAFD4;stroke-width:3;stroke-miterlimit:10;}
	.st3{fill:none;stroke:#0FAFD4;stroke-width:3;stroke-linecap:round;stroke-miterlimit:10;}
	.st4{fill:none;stroke:#0FAFD4;stroke-width:19;stroke-linecap:round;stroke-miterlimit:10;}
	.st5{fill:#0FAFD4;}
</style>
<g id="Layer_1">
	<title>20180125 appointments</title>
	<path class="st0" d="M489.7,363.2v-284c0-15.7-12.7-28.4-28.4-28.4h-60.9c0.3,15.1-13.8,27.9-28.5,27.9
		c-15.8,0-27.5-12.7-28.4-27.9h-69.7c0.3,15.1-13.8,27.9-28.4,27.9c-15.8,0-27.4-12.7-28.4-27.9h-66.2c0.3,15.1-13.8,27.9-28.5,27.9
		c-15.8,0-27.4-12.7-28.4-27.9H34c-15.7,0-28.4,12.8-28.5,28.4V417c0,15.7,12.8,28.4,28.5,28.5H377"/>
	<path class="st1" d="M172.4,129.1h57.4c6.6,0,12,5.4,12,12v39.8c0,6.6-5.4,12-12,12h-57.4c-6.6,0-12-5.4-12-12v-39.8
		C160.4,134.5,165.8,129.1,172.4,129.1z"/>
	<path class="st2" d="M265.2,129.1h57.4c6.6,0,12,5.4,12,12v39.8c0,6.6-5.4,12-12,12h-57.4c-6.6,0-12-5.4-12-12v-39.8
		C253.2,134.5,258.6,129.1,265.2,129.1z"/>
	<path class="st2" d="M358.1,129.1h57.4c6.6,0,12,5.4,12,12v39.8c0,6.6-5.4,12-12,12h-57.4c-6.6,0-12-5.4-12-12v-39.8
		C346.1,134.5,351.4,129.1,358.1,129.1z"/>
	<path class="st2" d="M79.6,202.6H137c6.6,0,12,5.4,12,12v39.8c0,6.6-5.4,12-12,12H79.6c-6.6,0-12-5.4-12-12v-39.8
		C67.6,208,73,202.6,79.6,202.6z"/>
	<path class="st1" d="M172.4,202.6h57.4c6.6,0,12,5.4,12,12v39.8c0,6.6-5.4,12-12,12h-57.4c-6.6,0-12-5.4-12-12v-39.8
		C160.4,208,165.8,202.6,172.4,202.6z"/>
	<path class="st3" d="M256.1,262.3c-1.8-2.1-2.9-4.8-2.9-7.8v-39.8c0-6.6,5.4-12,12-12h57.4c6.6,0,12,5.4,12,12v13.9"/>
	<path class="st3" d="M346.1,228.5v-13.9c0-6.6,5.4-12,12-12h57.4c6.6,0,12,5.4,12,12v13.9"/>
	<path class="st1" d="M79.6,276.2H137c6.6,0,12,5.4,12,12V328c0,6.6-5.4,12-12,12H79.6c-6.6,0-12-5.4-12-12v-39.9
		C67.6,281.5,73,276.2,79.6,276.2z"/>
	<path class="st2" d="M172.5,276.2h57.4c6.6,0,12,5.4,12,12V328c0,6.6-5.4,12-12,12h-57.4c-6.6,0-12-5.4-12-12v-39.9
		C160.5,281.5,165.8,276.2,172.5,276.2z"/>
	<path class="st3" d="M256.1,335.7c-1.7-2.1-2.8-4.8-2.8-7.7v-39.9c0-2.9,1.1-5.6,2.8-7.7"/>
	<line class="st3" x1="427.6" y1="291.3" x2="427.6" y2="315.8"/>
	<path class="st1" d="M79.6,349.7H137c6.6,0,12,5.4,12,12v39.9c0,6.6-5.4,12-12,12H79.6c-6.6,0-12-5.4-12-12v-39.9
		C67.6,355.1,73,349.7,79.6,349.7z"/>
	<path class="st1" d="M172.5,349.7h57.4c6.6,0,12,5.4,12,12v39.9c0,6.6-5.4,12-12,12h-57.4c-6.6,0-12-5.4-12-12v-39.9
		C160.5,355.1,165.8,349.7,172.5,349.7z"/>
	<line class="st4" x1="122.3" y1="50.7" x2="122.3" y2="9.5"/>
	<line class="st4" x1="246.5" y1="51.9" x2="246.5" y2="10.7"/>
	<line class="st4" x1="371.9" y1="51.9" x2="371.9" y2="10.7"/>
</g>
<g id="Layer_2">
	<path class="st5" d="M469.5,362.1l-52.9-52.9l-2.9-2.9c-0.8-0.8-1.2-1.9-1.2-3c0-1.1,0.4-2.2,1.2-3l37.1-37.1
		c5.2-5.2,6.7-13,4-19.8c-2.9-6.8-9.4-11.2-16.7-11.2h-0.7H277.8c-10,0-18.2,8.1-18.2,18.2v13.3v45.6V364v46.8
		c0,7.4,4.4,14,11.2,16.7c6.8,2.9,14.5,1.3,19.8-4l37.1-37.1c1.7-1.7,4.3-1.7,6.1,0l75.5,75.5c3.4,3.4,7.9,5.3,12.9,5.3
		c4.8,0,9.4-1.9,12.9-5.3l54.4-54.4c3.4-3.4,5.3-8,5.3-12.9s-1.9-9.4-5.3-12.9L469.5,362.1z M479.4,397.6L425,452
		c-0.8,0.8-1.9,1.2-3,1.2c-1.1,0-2.2-0.4-3-1.2l-75.5-75.5c-3.5-3.5-8.1-5.3-12.9-5.3c-4.6,0-9.2,1.8-12.9,5.3l-37.1,37.1
		c-1.8,1.8-3.9,1.2-4.6,0.9c-0.8-0.3-2.6-1.3-2.6-4V250.4c0-2.3,1.9-4.3,4.3-4.3H438c2.5,0,3.6,1.9,4,2.6s0.9,2.9-0.9,4.6L404,290.5
		c-3.4,3.4-5.3,7.9-5.3,12.9c0,4.8,1.9,9.4,5.3,12.9l75.5,75.5C481,393.2,481,396,479.4,397.6z"/>
</g>
</svg>
