<?xml version="1.0" encoding="utf-8"?>
<!-- Generator: Adobe Illustrator 22.0.1, SVG Export Plug-In . SVG Version: 6.00 Build 0)  -->
<svg version="1.1" id="Layer_1" xmlns="http://www.w3.org/2000/svg" xmlns:xlink="http://www.w3.org/1999/xlink" x="0px" y="0px"
	 viewBox="0 0 351.9 545.5" style="enable-background:new 0 0 351.9 545.5;" xml:space="preserve">
<style type="text/css">
	.st0{fill:#0FAFD4;}
	.st1{fill:none;stroke:#0FAFD4;stroke-width:16;stroke-miterlimit:10;}
</style>
<path class="st0" d="M253.7,350.4h-5.6h-13.8v-21.9c8.7-5.6,17.8-11.7,27.5-18.8c15.8-11.7,26-30.1,28-49.4
	c21.9-1.5,39.2-19.9,39.2-42.3c0-13.8-6.6-26.5-17.3-34.1V92.7c0-23.4-18.8-42.3-42.3-42.3h-2C263.8,21.9,239.9,0,210.4,0h-70.3
	C81.1,0,32.7,48.4,32.7,107.5v83c-6.1,7.1-9.7,16.8-9.7,27c0,22.4,17.3,40.7,39.2,42.3c1.5,19.4,11.7,37.7,28,49.4
	c9.7,7.1,18.8,13.8,27.5,18.8v21.9h-13.8h-5.6c-54,0-98.3,43.8-98.3,98.3v90.2c0,4.1,3.1,7.1,7.1,7.1h337.7c4.1,0,7.1-3.1,7.1-7.1
	v-89.6C352,394.2,307.7,350.4,253.7,350.4z M237.4,364.7l-20.9,52.5l-29-29l41.8-22.9h8.1L237.4,364.7L237.4,364.7z M175.8,377.9
	l-44.3-24.4v-16.3c19.4,11.2,34.1,16.8,44.3,16.8s25-5.6,44.3-16.8v16.3L175.8,377.9z M314.4,218c0,14.3-10.7,26-24.4,28v-56
	C303.7,191.5,314.4,203.7,314.4,218z M61.7,246c-13.8-2-24.4-13.8-24.4-28c0-14.3,10.7-26,24.4-28V246z M98.4,298
	C84.6,287.8,76,271.5,76,254.2v-1v-70.8v-34.6c0-34.1,27.5-61.6,61.6-61.6h75.9c34.1,0,61.6,27.5,61.6,61.6v34.6v70.8v1
	c0,17.3-8.1,33.6-22.4,43.8c-36.2,26.5-64.2,41.8-77.4,41.8C162.1,339.7,134.6,324.5,98.4,298z M122.3,364.7l42.3,23.4l-29.5,29.6
	l-20.9-53H122.3z"/>
<path class="st1" d="M46.9,248c0,0-34.8,112,125,53.5"/>
<circle class="st1" cx="188.2" cy="293.8" r="25.8"/>
</svg>
