<?xml version="1.0" encoding="utf-8"?>
<!-- Generator: Adobe Illustrator 22.0.1, SVG Export Plug-In . SVG Version: 6.00 Build 0)  -->
<svg version="1.1" id="Layer_1" xmlns="http://www.w3.org/2000/svg" xmlns:xlink="http://www.w3.org/1999/xlink" x="0px" y="0px"
	 viewBox="0 0 485.3 419.9" style="enable-background:new 0 0 485.3 419.9;" xml:space="preserve">
<style type="text/css">
	.st0{fill:#0FAFD4;}
	.st1{fill:none;stroke:#0FAFD4;stroke-width:11;stroke-linejoin:round;stroke-miterlimit:10;}
</style>
<g>
	<path class="st0" d="M455.9,0H29.4C13.2,0,0,13.2,0,29.4v275.8c0,16.2,13.2,29.4,29.4,29.4h169.9l-2.2,51.3h-32.8v31.9h160.4v-31.9
		h-32.8l-2.2-51.3h42.5c0.5-4.1,0.5-8.2,1.8-12h-44.7h-89.4H29.4c-9.6,0-17.4-7.8-17.4-17.4V29.4C12,19.8,19.8,12,29.4,12h426.5
		c9.6,0,17.4,7.8,17.4,17.4v267.3c4.8,4.1,8.5,9.2,11.4,14.6c0.4-2,0.6-4,0.6-6.1V29.4C485.3,13.2,472.1,0,455.9,0z M211.3,334.5
		h66.4l2.1,51.3h-70.7L211.3,334.5z M312.7,397.8v7.9H176.3v-7.9H312.7z"/>
	<path class="st0" d="M284.7,271.6H36.3V38.9H449v232.6h-3.4c5,3,9.3,7.1,13.5,11.5h1.4V27.4H24.8v255.7h272.1
		C292.9,279.1,288.9,275.2,284.7,271.6z"/>
</g>
<path class="st1" d="M472.3,375.5c12.1-25.4,7.7-56.8-13.4-77.9c-21.1-21.1-52.4-25.5-77.9-13.4L262.3,165.5
	c12.1-25.4,7.7-56.8-13.4-77.9c-21.1-21.1-52.4-25.5-77.9-13.4l46.8,46.8l-32.2,32.2l-46.8-46.8c-12.1,25.4-7.7,56.8,13.4,77.9
	c21.1,21.1,52.4,25.5,77.9,13.4l118.8,118.8c-12.1,25.4-7.7,56.8,13.4,77.9c21.1,21.1,52.4,25.5,77.9,13.4l-46.8-46.8l32.2-32.2
	L472.3,375.5z"/>
</svg>
