<?xml version="1.0" encoding="utf-8"?>
<!-- Generator: Adobe Illustrator 22.0.1, SVG Export Plug-In . SVG Version: 6.00 Build 0)  -->
<svg version="1.1" id="Layer_1" xmlns="http://www.w3.org/2000/svg" xmlns:xlink="http://www.w3.org/1999/xlink" x="0px" y="0px"
	 viewBox="0 0 460.5 427" style="enable-background:new 0 0 460.5 427;" xml:space="preserve">
<style type="text/css">
	.st0{fill:none;stroke:#0FAFD4;stroke-width:13;stroke-linecap:round;stroke-linejoin:round;stroke-miterlimit:10;}
	.st1{fill:#0FAFD4;}
</style>
<g>
	<path class="st0" d="M454,352c-76.3-3.5-95.5-110.3-77.9-181.3S320,30.6,250.8,31.5c0,0,0.9-25-21.1-25s-20.1,25-20.1,25
		C140.5,30.6,66.9,99.8,84.4,170.7c11.3,46,24.1,84.1-0.7,122.8c-13.5,21-40,45-77.3,58.5c0,0,8.3,68.5,223.3,68.5S454,352,454,352z
		"/>
</g>
<g>
	<path class="st1" d="M199.9,281.3h60.7V342h-60.7V281.3z M259,166.7l-15,98.3h-27.1l-15-98.3v-57.8H259V166.7z"/>
</g>
</svg>
