<?xml version="1.0" encoding="utf-8"?>
<!-- Generator: Adobe Illustrator 22.0.1, SVG Export Plug-In . SVG Version: 6.00 Build 0)  -->
<svg version="1.1" id="Layer_1" xmlns="http://www.w3.org/2000/svg" xmlns:xlink="http://www.w3.org/1999/xlink" x="0px" y="0px"
	 viewBox="0 0 399.8 490" style="enable-background:new 0 0 399.8 490;" xml:space="preserve">
<style type="text/css">
	.st0{fill:#13AFD3;}
	.st1{enable-background:new    ;}
	.st2{opacity:0.99;fill:none;stroke:#0BAFD3;stroke-width:3;stroke-linecap:round;stroke-miterlimit:10;}
</style>
<g>
	<g>
		<path class="st0" d="M325.1,214.7c0.6,1.4,1.9,2.3,3.5,2.4c0.5,0,1-0.1,1.4-0.3l0,0c1.9-0.8,2.8-2.9,2.1-4.9l0-0.1l-1.9-4.6
			c-0.8-1.9-2.9-2.8-4.9-2.1l-0.1,0l0,0c-1.9,0.8-2.8,2.9-2.1,4.9l0,0.1L325.1,214.7z"/>
		<path class="st0" d="M22.9,246.4l-5.9,0c-1.1,0-1.9,0.8-1.9,1.9c0,1.1,0.8,1.9,1.9,1.9c0,0,0,0,0.1,0l5.9,0c1.1,0,1.9-0.8,1.9-1.9
			C24.9,247.2,24,246.4,22.9,246.4z"/>
		<path class="st0" d="M107.8,469l12,0c1.1-0.1,1.8-1,1.8-2.1c-0.1-1-0.8-1.8-1.8-1.8l-12,0c-1.1,0.1-1.8,1-1.8,2.1
			C106,468.2,106.8,468.9,107.8,469z"/>
		<path class="st0" d="M83.6,469l12.1,0c1.1-0.1,1.8-1,1.8-2.1c-0.1-1-0.8-1.8-1.8-1.8l-12.1,0c-1.1,0-1.9,0.8-1.9,1.9
			S82.5,468.9,83.6,469z"/>
		<path class="st0" d="M131.9,469l12.1,0c1.1-0.1,1.8-1,1.8-2.1c-0.1-1-0.8-1.8-1.8-1.8l-12.1,0c-1.1,0-1.9,0.8-1.9,1.9
			C130,468.1,130.8,468.9,131.9,469z"/>
		<path class="st0" d="M47.1,250.2c1.1,0,1.9-0.8,1.9-1.9s-0.8-1.9-1.8-1.9c0,0,0,0-0.1,0l-12,0c-1.1,0-1.9,0.8-1.9,1.9
			c0,1.1,0.8,1.9,1.8,1.9c0,0,0,0,0.1,0L47.1,250.2z"/>
		<path class="st0" d="M59.4,469.1l12.1,0c1.1-0.1,1.8-1,1.8-2.1c-0.1-1-0.8-1.8-1.8-1.8l-12.1,0c-1.1,0.1-1.8,1-1.8,2.1
			C57.7,468.2,58.4,469,59.4,469.1z"/>
		<path class="st0" d="M156,468.9l12.1,0c1.1-0.1,1.8-1,1.8-2.1c-0.1-1-0.8-1.8-1.8-1.8l-12.1,0c-1.1,0.1-1.8,1-1.8,2.1
			C154.3,468.1,155.1,468.9,156,468.9z"/>
		<path class="st0" d="M35.3,469.1l12.1,0c1.1-0.1,1.8-1,1.8-2.1c-0.1-1-0.8-1.8-1.8-1.8l-12.1,0c-1.1,0-1.9,0.8-1.9,1.9
			C33.4,468.2,34.2,469.1,35.3,469.1z"/>
		<path class="st0" d="M180.2,468.9l12.1,0c1.1-0.1,1.8-1,1.8-2.1c-0.1-1-0.8-1.8-1.8-1.8l-12.1,0c-1.1,0-1.9,0.8-1.9,1.9
			C178.3,468,179.1,468.8,180.2,468.9z"/>
		<path class="st0" d="M274.9,466.9c0,1.1,0.8,1.9,1.9,1.9l12.1,0c1.1-0.1,1.8-1,1.8-2.1c-0.1-1-0.8-1.8-1.8-1.8l-12.1,0
			C275.7,465,274.9,465.9,274.9,466.9z"/>
		<path class="st0" d="M372.6,301.1c-1.1,0-1.9,0.8-1.9,1.9l0,12.1c0.1,1.1,1,1.8,2.1,1.8c1-0.1,1.8-0.8,1.8-1.8l0-12.1
			C374.5,302,373.7,301.1,372.6,301.1z"/>
		<path class="st0" d="M204.3,468.9l12.1,0c1.1-0.1,1.8-1,1.8-2.1c-0.1-1-0.8-1.8-1.8-1.8l-12.1,0c-1.1,0-1.9,0.8-1.9,1.9
			C202.4,468.1,203.3,468.9,204.3,468.9z"/>
		<path class="st0" d="M228.5,468.9l12.1,0c1.1-0.1,1.8-1,1.8-2.1c-0.1-1-0.8-1.8-1.8-1.8l-12.1,0c-1.1,0.1-1.8,1-1.8,2.1
			C226.7,468,227.5,468.8,228.5,468.9z"/>
		<path class="st0" d="M252.7,468.8l12.1,0c1.1-0.1,1.8-1,1.8-2.1c-0.1-1-0.8-1.8-1.8-1.8l-12.1,0c-1.1,0-1.9,0.8-1.9,1.9
			C250.7,467.9,251.6,468.8,252.7,468.8z"/>
		<path class="st0" d="M358.3,468.7L358.3,468.7c1.1,0,2.3-0.1,3.3-0.3c1-0.2,1.7-1.2,1.4-2.2c-0.2-1-1.2-1.7-2.2-1.4l0,0
			c-0.8,0.2-1.8,0.3-2.6,0.3l-9,0c-1.1-0.1-2,0.8-2.1,1.8s0.8,2,1.8,2.1c0.1,0,0.2,0,0.3,0L358.3,468.7L358.3,468.7z"/>
		<path class="st0" d="M370.9,435.8c-0.1,1.1,0.8,2,1.8,2.1c1.1,0.1,2-0.8,2.1-1.8c0-0.1,0-0.2,0-0.3l0-12c0.1-1.1-0.8-2-1.8-2.1
			c-1.1-0.1-2,0.8-2.1,1.8c0,0.1,0,0.2,0,0.3L370.9,435.8z"/>
		<path class="st0" d="M370.9,452.3c0,2.3-0.6,4.4-1.7,6.4c-0.5,0.9-0.2,2,0.7,2.6l0,0c0.3,0.2,0.6,0.3,0.9,0.2
			c0.7,0,1.3-0.3,1.6-0.9c1.4-2.5,2.3-5.4,2.2-8.3l0-4.4c-0.1-1.1-1-1.8-2.1-1.8c-1,0.1-1.8,0.8-1.8,1.8l0,4.4L370.9,452.3z"/>
		<path class="st0" d="M313,468.8c1.1-0.1,1.8-1,1.8-2.1c-0.1-1-0.8-1.8-1.8-1.8l-12.1,0c-1.1-0.1-2,0.8-2.1,1.8
			c-0.1,1.1,0.8,2,1.8,2.1c0.1,0,0.2,0,0.3,0L313,468.8z"/>
		<path class="st0" d="M337.2,468.7c1.1-0.1,1.8-1,1.8-2.1c-0.1-1-0.8-1.8-1.8-1.8l-12,0c-1.1-0.1-2,0.8-2.1,1.8
			c-0.1,1.1,0.8,2,1.8,2.1c0.1,0,0.2,0,0.3,0L337.2,468.7z"/>
		<path class="st0" d="M372.7,413.6c1.1,0,1.9-0.8,1.9-1.9l0-12.1c-0.1-1.1-1-1.8-2.1-1.8c-1,0.1-1.8,0.8-1.8,1.8l0,12.1
			C370.8,412.7,371.7,413.6,372.7,413.6z"/>
		<path class="st0" d="M71.2,250.2c1.1,0,1.9-0.8,1.9-1.9c0-1.1-0.8-1.9-1.8-1.9c0,0,0,0-0.1,0l-12.1,0c-1.1,0-1.9,0.8-1.9,1.9
			s0.8,1.9,1.8,1.9c0,0,0,0,0.1,0L71.2,250.2z"/>
		<path class="st0" d="M95.3,250.1c1.1,0,1.9-0.8,1.9-1.9c0-1.1-0.8-1.9-1.8-1.9c0,0,0,0-0.1,0l-12,0c-1.1,0-1.9,0.8-1.9,1.9
			c0,1.1,0.8,1.9,1.9,1.9c0,0,0,0,0.1,0L95.3,250.1z"/>
		<path class="st0" d="M358.1,246l-9.1,0c-1.1,0-1.9,0.8-1.9,1.9s0.8,1.9,1.9,1.9c0,0,0,0,0.1,0l9.1,0c0.8,0,1.8,0.1,2.6,0.2
			c0.1,0,0.3,0.1,0.3,0.1c0.9,0,1.7-0.6,1.8-1.5c0.2-1-0.3-1.9-1.3-2.2l-0.1,0C360.3,246.1,359.2,246,358.1,246z"/>
		<path class="st0" d="M374.5,278.8c0.1-1.1-0.8-2-1.8-2.1c-1.1-0.1-2,0.8-2.1,1.8c0,0.1,0,0.2,0,0.3l0,12.1c0.1,1.1,1,1.8,2.1,1.8
			c1-0.1,1.8-0.8,1.8-1.8L374.5,278.8z"/>
		<path class="st0" d="M374.5,262.4c0-2.9-0.8-5.8-2.3-8.3c-0.6-0.9-1.7-1.2-2.6-0.6c-0.8,0.5-1.2,1.7-0.7,2.5
			c1.2,1.9,1.8,4.1,1.8,6.4l0,4.4c0,1.1,0.8,1.9,1.9,1.9c1.1,0,1.9-0.8,1.9-1.9L374.5,262.4L374.5,262.4z"/>
		<path class="st0" d="M216.1,250c1.1,0,1.9-0.8,1.9-1.9s-0.8-1.9-1.8-1.9c0,0,0,0-0.1,0l-12.1,0c-1.1,0-1.9,0.8-1.9,1.9
			c0,1.1,0.8,1.9,1.9,1.9c0,0,0,0,0.1,0L216.1,250z"/>
		<path class="st0" d="M264.5,249.9c1.1,0,1.9-0.8,1.9-1.9c0-1.1-0.8-1.9-1.8-1.9c0,0,0,0-0.1,0l-12.1,0c-1.1,0-1.9,0.8-1.9,1.9
			c0,1.1,0.8,1.9,1.9,1.9c0,0,0,0,0.1,0L264.5,249.9z"/>
		<path class="st0" d="M290.5,248c0-1.1-0.8-1.9-1.9-1.9l-12.1,0c-1.1,0-1.9,0.8-1.9,1.9s0.8,1.9,1.9,1.9c0,0,0,0,0.1,0l12.1,0
			C289.6,249.9,290.5,249.1,290.5,248z"/>
		<path class="st0" d="M300.7,246c-1.1,0-1.9,0.8-1.9,1.9s0.8,1.9,1.9,1.9c0,0,0,0,0.1,0l12.1,0c1.1,0,1.9-0.8,1.9-1.9
			s-0.8-1.9-1.8-1.9c0,0,0,0-0.1,0L300.7,246z"/>
		<path class="st0" d="M240.3,250c1.1,0,1.9-0.8,1.9-1.9c0-1.1-0.8-1.9-1.8-1.9c0,0,0,0-0.1,0l-12,0c-1.1,0-1.9,0.8-1.9,1.9
			c0,1.1,0.8,1.9,1.9,1.9c0,0,0,0,0.1,0L240.3,250z"/>
		<path class="st0" d="M119.6,250.1c1.1,0,1.9-0.8,1.9-1.9c0-1.1-0.8-1.9-1.8-1.9c0,0,0,0-0.1,0l-12.1,0c-1.1,0-1.9,0.8-1.9,1.9
			c0,1.1,0.8,1.9,1.8,1.9c0,0,0,0,0.1,0L119.6,250.1z"/>
		<path class="st0" d="M324.8,246c-1.1,0-1.9,0.8-1.9,1.9c0,1.1,0.8,1.9,1.9,1.9c0,0,0,0,0.1,0l12,0c1.1,0,1.9-0.8,1.9-1.9
			S338,246,337,246c0,0,0,0-0.1,0L324.8,246z"/>
		<path class="st0" d="M192,250c1.1,0,1.9-0.8,1.9-1.9c0-1.1-0.8-1.9-1.8-1.9c0,0,0,0-0.1,0l-12.1,0c-1.1,0-1.9,0.8-1.9,1.9
			s0.8,1.9,1.8,1.9c0,0,0,0,0.1,0L192,250z"/>
		<path class="st0" d="M143.7,250.1c1.1,0,1.9-0.8,1.9-1.9s-0.8-1.9-1.8-1.9c0,0,0,0-0.1,0l-12.1,0c-1.1,0-1.9,0.8-1.9,1.9
			s0.8,1.9,1.8,1.9c0,0,0,0,0.1,0L143.7,250.1z"/>
		<path class="st0" d="M167.8,250c1.1,0,1.9-0.8,1.9-1.9c0-1.1-0.8-1.9-1.8-1.9c0,0,0,0-0.1,0l-12.1,0c-1.1,0-1.9,0.8-1.9,1.9
			s0.8,1.9,1.9,1.9c0,0,0,0,0.1,0L167.8,250z"/>
		<path class="st0" d="M23.2,465.3l-5.9,0c-1.1-0.1-2,0.8-2.1,1.8c-0.1,1.1,0.8,2,1.8,2.1c0.1,0,0.2,0,0.3,0l5.9,0
			c1.1,0,1.9-0.8,1.9-1.9C25.1,466.3,24.2,465.3,23.2,465.3z"/>
		<path class="st0" d="M390.9,318.6l-68,0.1c-20.5,0-37,16.6-37,37.1l0,3.4c0,20.5,16.6,37,37.1,37l62.3-0.1l0.1,68.4
			c0,9.6-7.8,17.5-17.5,17.5l-342.6,0.4c-9.6,0-17.5-7.8-17.5-17.5L7.6,250.6c0-9.6,7.8-17.5,17.5-17.5l342.6-0.4
			c9.6,0,17.5,7.8,17.5,17.5l0.1,58.8c0.1,2.1,1.8,3.7,3.9,3.6c1.9-0.1,3.5-1.7,3.6-3.6l-0.1-58.8c0-13.9-11.2-25.1-25.1-25.1
			l-8.9,0l-39.1-94.9c-2.3-5.5-8.7-8.2-14.2-5.8l-245.7,101l-34.7,0C11.2,225.5,0,236.7,0,250.6l0,0l0.2,214.4
			c0,13.9,11.2,25.1,25.1,25.1l0,0l342.6-0.4c13.9,0,25.1-11.2,25.1-25.1l0,0l-0.1-68.6c4-0.9,6.9-4.5,6.8-8.6l-0.1-59.9
			C399.7,322.4,395.8,318.6,390.9,318.6L390.9,318.6z M170.4,225.4l-39.1,0l150.8-62c5.3,9.4,16.2,14.3,26.9,11.8l6,14.5
			c0.8,1.9,2.9,2.8,4.9,2.1l0.1,0l0,0c1.9-0.8,2.8-2.9,2.1-4.9l0-0.1l-7.3-17.8c-0.4-0.9-1.1-1.7-2-2.1c-0.9-0.4-1.9-0.4-2.9,0
			c-8.5,3.5-18.2-0.6-21.7-9.1c-0.1-0.3-0.2-0.5-0.3-0.8c-0.3-1-1.1-1.8-2-2.2c-0.9-0.4-2-0.4-3-0.1l-171.1,70.4l-31.5,0l228.6-94.1
			c0.8-0.3,1.7-0.3,2.5,0c0.8,0.3,1.4,1,1.8,1.8l37.9,92l-93,0.1 M392.2,387.3c0,0.7-0.5,1.2-1.2,1.2l-68,0.1
			c-16.3,0-29.4-13.2-29.5-29.5l0-3.4c0-16.3,13.2-29.4,29.5-29.5l68-0.1c0.7,0,1.2,0.5,1.2,1.2L392.2,387.3z"/>
		<path class="st0" d="M324.8,334.8c-12.5,0-22.6,10.1-22.6,22.6s10.1,22.6,22.6,22.6c12.5,0,22.6-10.1,22.6-22.6l0,0
			C347.3,344.9,337.3,334.8,324.8,334.8z M324.9,372.5c-8.3,0-15.1-6.8-15.1-15s6.8-15.1,15-15.1s15.1,6.8,15.1,15
			C339.9,365.7,333.2,372.5,324.9,372.5z"/>
		<g class="st1">
			<path class="st0" d="M131,353.6l13,0c-6.4-10.1-11.4-20.9-11.4-33.3c0-29.6,23.4-42.8,47.2-42.8c30.7,0,48.8,18.4,48.1,49l-13,0
				c0-22.4-11.8-38.1-35.1-38.1c-17.4,0-34.2,10.4-34.2,32.6c0,14.5,7.3,20.3,12.2,32.5l33.2,0l0,6.6l-29.4,0
				c3.1,4.9,4.9,14.3,5,20.1c0,15.3-11.3,29-22.8,37.7l0.4,0.4c6-3.1,12.9-6.2,20.1-6.2c9.1,0,15.6,1.8,21.2,4.2
				c5.8,2.3,11,4.3,17.8,4.3c8.9,0,18.1-5.2,23.8-11.6l6.6,9.9c-9.1,8.1-17.8,12.6-30.3,12.7c-18.1,0-26.1-8.5-42.9-8.5
				c-10.5,0-14.5,3.5-22.8,8.6l-7.5-11.2c12.2-10.1,23.2-22,23.2-38.6c0-6.4-2.5-16.1-5.8-21.7l-16.8,0L131,353.6L131,353.6z"/>
		</g>
	</g>
</g>
<g>
	<path class="st0" d="M112.7,72.6V24.7c0-3.9-3.2-7.1-7.1-7.1H95.4c-3.9,0-7.1,3.2-7.1,7.1v47.9c0,3.9,3.2,7.1,7.1,7.1h10.2
		C109.5,79.7,112.7,76.5,112.7,72.6z M95.4,73.7c-0.6,0-1.1-0.5-1.1-1.1v-48c0-0.6,0.5-1.1,1.1-1.1h10.2c0.6,0,1.1,0.5,1.1,1.1v47.9
		c0,0.6-0.5,1.1-1.1,1.1L95.4,73.7z"/>
	<path class="st0" d="M112.7,147.4V99.5c0-3.9-3.2-7.1-7.1-7.1H95.4c-3.9,0-7.1,3.2-7.1,7.1v47.9c0,3.9,3.2,7.1,7.1,7.1h10.2
		C109.5,154.5,112.7,151.3,112.7,147.4z M95.4,148.4c-0.6,0-1.1-0.5-1.1-1.1V99.5c0-0.6,0.5-1.1,1.1-1.1h10.2c0.6,0,1.1,0.5,1.1,1.1
		v47.9c0,0.6-0.5,1.1-1.1,1.1H95.4z"/>
	<path class="st0" d="M94.3,216.1v-41.9c0-0.6,0.5-1.1,1.1-1.1h10.2c0.6,0,1.1,0.5,1.1,1.1v37.2c0.3-0.2,0.7-0.3,1-0.5
		c0.3-0.2,3.4-2.1,1.8-0.9c1-0.8,2.1-1.4,3.3-1.9v-33.9c0-3.9-3.2-7.1-7.1-7.1H95.4c-3.9,0-7.1,3.2-7.1,7.1v44.7
		C90.2,217.8,92.3,216.9,94.3,216.1z"/>
	<path class="st0" d="M121.1,203.3c1.5-0.8,3.1-1.3,4.6-1.3c0.5,0,1,0.1,1.5,0.1V6.1h100.1c2.6,0,4.7,2.1,4.7,4.7v149.4
		c0.1,0,0.3-0.1,0.4-0.1c1.7-0.5,2.5-1.2,3.5-2.7c0.6-1,1.4-1.8,2.2-2.4V10.8c0-6-4.8-10.8-10.8-10.8H48.1c-6,0-10.8,4.8-10.8,10.8
		v217.8c2-0.3,4-0.5,6.1-0.5V10.8c0-2.6,2.1-4.7,4.7-4.7h73V203.3z"/>
	<path class="st0" d="M175.2,86.8V42.7c0-4.4-3.6-8-8-8c0,0,0,0,0,0h-24.4c-4.4,0-8,3.6-8,8c0,0,0,0,0,0v44.1c0,4.4,3.6,8,8,8
		c0,0,0,0,0,0h24.4C171.6,94.8,175.1,91.3,175.2,86.8z M167.1,40.8c1.1,0,2,0.9,2,2v1.9h-7.3v-3.9H167.1z M160.1,40.8v7
		c0.1,2.8-2.1,5.2-4.9,5.3c-2.8,0.1-5.2-2.1-5.3-4.9c0-0.1,0-0.2,0-0.4v-7H160.1z M140.7,42.7c0-1.1,0.9-2,2-2h5.5v3.9h-7.4
		L140.7,42.7z M140.7,46.4h7.4v1.3c0,3.8,3.1,6.8,6.8,6.8c3.8,0,6.8-3.1,6.8-6.8v-1.3h7.4v36.8h-7.3v-1.3c0.1-3.8-2.8-6.9-6.6-7
		c-3.8-0.1-6.9,2.8-7,6.6c0,0.1,0,0.3,0,0.4v1.3h-7.5L140.7,46.4L140.7,46.4z M142.7,88.8c-1.1,0-2-0.9-2-2l0,0V85h7.5v3.9
		L142.7,88.8z M149.9,88.8v-7c0-2.8,2.3-5.1,5.1-5.1c2.8,0,5.1,2.3,5.1,5.1c0,0,0,0,0,0v7L149.9,88.8z M161.8,88.8V85h7.3v1.9
		c0,1.1-0.9,2-2,2L161.8,88.8z"/>
</g>
<line class="st2" x1="221.2" y1="75.5" x2="221.2" y2="162.3"/>
<line class="st2" x1="169.1" y1="146.4" x2="169.1" y2="157.4"/>
<line class="st2" x1="169.1" y1="164.5" x2="169.1" y2="186.5"/>
<line class="st2" x1="59.2" y1="139.9" x2="59.2" y2="227"/>
<line class="st2" x1="59.2" y1="139.9" x2="59.2" y2="227"/>
<line class="st2" x1="75.1" y1="175.5" x2="75.1" y2="221.8"/>
<line class="st2" x1="206.9" y1="120.8" x2="206.9" y2="167.1"/>
</svg>
