<svg id="Layer_1" data-name="Layer 1" xmlns="http://www.w3.org/2000/svg" viewBox="0 0 500 500"><defs><style>.cls-1{fill:none;stroke:#0fafd4;stroke-linecap:round;stroke-linejoin:round;stroke-width:7px;}.cls-2{fill:#0fafd4;}</style></defs><title>20180301 lh homepage icons v2</title><path class="cls-1" d="M258.08,18.9H47.65A38.91,38.91,0,0,0,8.86,57.69V183.25a38.86,38.86,0,0,0,.48,6V264l36.41-42c.63,0,1.26.05,1.9.05H258.08a38.89,38.89,0,0,0,38.78-38.78V57.69A38.9,38.9,0,0,0,258.08,18.9Z"/><path class="cls-2" d="M116.73,95c0-23.7,14-39.49,38.15-39.49,18.66,0,34.12,11.59,34.12,31.09,0,12.6-6.05,20.5-14.62,28.57-14.12,14.12-15.13,12.27-15.63,32.77H148.16c-.51-20.5,5-26.22,19.33-39.16,6.21-5.88,10.92-12.94,10.92-21.68,0-13.44-11.09-22.69-24-22.69-18.15,0-27.57,13.28-27.06,30.59Zm29.75,65.21h14.11V178H146.48Z"/><path class="cls-2" d="M450.48,197.62H225.2a41.65,41.65,0,0,0-41.52,41.52V373.56a41.64,41.64,0,0,0,41.52,41.52H450.48c.68,0,1.36,0,2-.05l39,45V380a41.84,41.84,0,0,0,.51-6.47V239.14A41.64,41.64,0,0,0,450.48,197.62ZM327.56,227h25.32v41.74l-6.68,62.61h-12l-6.68-62.61ZM353.7,371.64H326.54V346.31H353.7Z"/></svg>