<svg id="Layer_1" data-name="Layer 1" xmlns="http://www.w3.org/2000/svg" viewBox="0 0 500 500"><defs><style>.cls-1,.cls-2{fill:none;stroke:#0fafd4;stroke-linecap:round;}.cls-1{stroke-linejoin:round;stroke-width:11px;}.cls-2{stroke-miterlimit:10;stroke-width:19px;}</style></defs><title>20180301 lh homepage icons</title><path class="cls-1" d="M424,385.17v-284c0-15.68-9.17-28.39-20.46-28.45H359.67c.22,15.11-9.91,27.87-20.48,27.87-11.34,0-19.76-12.71-20.45-27.87H268.57c.22,15.11-9.91,27.87-20.48,27.87-11.34,0-19.76-12.71-20.45-27.87H180c.21,15.11-9.92,27.87-20.49,27.87-11.34,0-19.76-12.71-20.45-27.87H96c-11.3,0-20.45,12.76-20.48,28.45V439.05c0,15.69,9.18,28.41,20.48,28.45H393.09a30.58,30.58,0,0,0,30.59-30.41Z"/><line class="cls-2" x1="159.55" y1="72.72" x2="159.55" y2="31.5"/><line class="cls-2" x1="248.98" y1="73.88" x2="248.98" y2="32.66"/><line class="cls-2" x1="339.24" y1="73.88" x2="339.24" y2="32.66"/><polyline class="cls-1" points="189.5 168.5 189.5 214.5 107.5 214.5 107.5 132.5 167.49 132.5"/><rect class="cls-1" x="107.5" y="358.5" width="82" height="82"/><polyline class="cls-1" points="189.5 274.5 189.5 327.5 107.5 327.5 107.5 245.5 167.49 245.5"/><line class="cls-1" x1="214.5" y1="141.5" x2="388.5" y2="141.5"/><line class="cls-1" x1="214.5" y1="168.5" x2="388.5" y2="168.5"/><line class="cls-1" x1="214.5" y1="194.5" x2="301.5" y2="194.5"/><line class="cls-1" x1="214.5" y1="249.5" x2="388.5" y2="249.5"/><line class="cls-1" x1="214.5" y1="274.5" x2="388.5" y2="274.5"/><line class="cls-1" x1="214.5" y1="298.5" x2="370.5" y2="298.5"/><line class="cls-1" x1="211.5" y1="358.5" x2="388.5" y2="358.5"/><line class="cls-1" x1="211.5" y1="385.5" x2="300.5" y2="385.5"/><line class="cls-1" x1="211.5" y1="414.5" x2="388.5" y2="414.5"/><line class="cls-1" x1="127.5" y1="178.99" x2="142.99" y2="197.5"/><line class="cls-1" x1="198" y1="126.2" x2="142.99" y2="197.5"/><line class="cls-1" x1="124.5" y1="294.99" x2="139.99" y2="313.5"/><line class="cls-1" x1="195" y1="242.2" x2="139.99" y2="313.5"/></svg>