<svg id="Layer_1" data-name="Layer 1" xmlns="http://www.w3.org/2000/svg" viewBox="0 0 500 500"><defs><style>.cls-1,.cls-3{fill:#0fafd4;}.cls-2,.cls-4{fill:none;stroke-width:7px;}.cls-2,.cls-3,.cls-4{stroke:#0fafd4;}.cls-2{stroke-linecap:square;stroke-miterlimit:10;}.cls-3,.cls-4{stroke-linecap:round;stroke-linejoin:round;}.cls-3{stroke-width:3px;}</style></defs><title>20180301 lh homepage icons v2</title><path class="cls-1" d="M126.32,15.5h.24l294.7,35.77c2,.24,4,3.72,3.58,7.84L378.47,477.84c-.43,3.92-2.87,6.66-4.79,6.66h-.24L78.74,448.72c-2-.24-4-3.72-3.58-7.84L121.53,22.16c.43-3.92,2.87-6.66,4.79-6.66m0-7c-5.77,0-10.94,5.55-11.75,12.89L68.2,440.11c-.86,7.81,3.5,14.81,9.69,15.56L372.6,491.43a7.83,7.83,0,0,0,1.08.07c5.77,0,10.94-5.55,11.75-12.89L431.8,59.89c.86-7.81-3.5-14.81-9.69-15.56L127.4,8.57a7.83,7.83,0,0,0-1.08-.07Z"/><path class="cls-2" d="M113.49,49.53H86.43c-6.88,0-12.5,5.87-12.5,13V422.47Z"/><path class="cls-2" d="M385.52,461.07h28.05c6.88,0,12.5-5.87,12.5-13V78.77Z"/><path class="cls-3" d="M250.32,272.22a22.17,22.17,0,0,1-22.17-22.16c0-.12,0-.25,0-.37l-25.85,35.54L167,333.82l48.4-35.59,35.37-26Z"/><path class="cls-3" d="M285.24,201.56l-35.56,26.35h.64a22.16,22.16,0,0,1,22.16,22.16,2.81,2.81,0,0,1,0,.29l25.88-35.85,35.17-48.72Z"/><path class="cls-4" d="M342.76,172.63A120.75,120.75,0,0,1,172.68,342.71"/><path class="cls-4" d="M158.83,329.13A120.76,120.76,0,0,1,326.24,156.32"/><line class="cls-4" x1="249.96" y1="129.51" x2="249.96" y2="145.94"/><line class="cls-4" x1="249.96" y1="352.66" x2="249.96" y2="369.08"/><line class="cls-4" x1="354.28" y1="249.3" x2="370.71" y2="249.3"/><line class="cls-4" x1="129.21" y1="249.3" x2="145.63" y2="249.3"/></svg>