<svg id="Layer_1" data-name="Layer 1" xmlns="http://www.w3.org/2000/svg" viewBox="0 0 500 500"><defs><style>.cls-1{fill:#0fafd4;}</style></defs><title>20180125 portals</title><path class="cls-1" d="M297.25,253.32h27.06V170.45l-74.42-62.58-74.41,62.58v82.87h27.06l47.57-40.17ZM327.48,277h-38.9l-38.69-32.77L211,277h-38.9a20.1,20.1,0,0,1-14.37-5.92,20.62,20.62,0,0,1-5.92-14.59L152,169a20.13,20.13,0,0,1,5.92-14.38l.84-.85L249.89,77l92.18,77.59A20.13,20.13,0,0,1,348,169l.21,87.52a21,21,0,0,1-5.92,14.59,20.23,20.23,0,0,1-14.8,5.92"/><path class="cls-1" d="M469,21.89H33.05A30.1,30.1,0,0,0,3,51.94V333.82a30.1,30.1,0,0,0,30.05,30.05H206.69l-2.24,52.43H170.92v32.61H334.86V416.3H301.34l-2.25-52.43H469A30.1,30.1,0,0,0,499,333.82V51.94A30.1,30.1,0,0,0,469,21.89ZM322.59,436.54H183.19v-8.08h139.4ZM289,416.2H216.71L219,363.77h67.86Zm197.77-82.38A17.81,17.81,0,0,1,469,351.61H33.05a17.81,17.81,0,0,1-17.79-17.79V51.94A17.8,17.8,0,0,1,33.05,34.16H469a17.8,17.8,0,0,1,17.79,17.78Z"/><path class="cls-1" d="M19.05,316.65H483V44.48H19.05ZM31.31,56.75H470.69V304.39H31.31Z"/></svg>