<svg id="Layer_1" data-name="Layer 1" xmlns="http://www.w3.org/2000/svg" viewBox="0 0 500 500"><defs><style>.cls-1,.cls-2{fill:#0fafd4;}.cls-2{font-size:247.88px;font-family:Roboto-Bold, Roboto;font-weight:700;}</style></defs><title>20180125 pricing</title><path class="cls-1" d="M401.93,133.15A4.59,4.59,0,0,0,406.1,136a4.92,4.92,0,0,0,1.73-.36h0a4.47,4.47,0,0,0,2.44-5.9L408,124.23a4.46,4.46,0,0,0-5.9-2.44h0a4.46,4.46,0,0,0-2.44,5.9Z"/><path class="cls-1" d="M40.42,170.64H33.3a2.32,2.32,0,0,0-2.31,2.3,2.28,2.28,0,0,0,2.31,2.3h7.12a2.3,2.3,0,0,0,0-4.6Z"/><path class="cls-1" d="M141.57,437H156a2.31,2.31,0,0,0,0-4.61H141.57a2.31,2.31,0,0,0,0,4.61Z"/><path class="cls-1" d="M112.65,437h14.46a2.31,2.31,0,0,0,0-4.61H112.65a2.32,2.32,0,0,0-2.3,2.3A2.42,2.42,0,0,0,112.65,437Z"/><path class="cls-1" d="M170.42,437h14.46a2.31,2.31,0,0,0,0-4.61H170.42a2.31,2.31,0,0,0-2.3,2.3A2.41,2.41,0,0,0,170.42,437Z"/><path class="cls-1" d="M69.27,175.17a2.32,2.32,0,0,0,2.3-2.3,2.28,2.28,0,0,0-2.3-2.31H54.88a2.32,2.32,0,0,0-2.3,2.31,2.27,2.27,0,0,0,2.3,2.3Z"/><path class="cls-1" d="M83.8,437H98.26a2.31,2.31,0,0,0,0-4.61H83.8a2.31,2.31,0,0,0,0,4.61Z"/><path class="cls-1" d="M199.34,437H213.8a2.31,2.31,0,0,0,0-4.61H199.34a2.31,2.31,0,0,0,0,4.61Z"/><path class="cls-1" d="M54.88,437H69.34a2.31,2.31,0,0,0,0-4.61H54.88a2.32,2.32,0,0,0-2.3,2.3A2.37,2.37,0,0,0,54.88,437Z"/><path class="cls-1" d="M228.19,437h14.46a2.31,2.31,0,0,0,0-4.61H228.19a2.31,2.31,0,0,0-2.3,2.3A2.41,2.41,0,0,0,228.19,437Z"/><path class="cls-1" d="M341.5,434.73a2.32,2.32,0,0,0,2.3,2.31h14.46a2.31,2.31,0,0,0,0-4.61H343.8A2.36,2.36,0,0,0,341.5,434.73Z"/><path class="cls-1" d="M458.62,236.53a2.32,2.32,0,0,0-2.31,2.31V253.3a2.31,2.31,0,0,0,4.61,0V238.84A2.32,2.32,0,0,0,458.62,236.53Z"/><path class="cls-1" d="M257.11,437h14.46a2.31,2.31,0,0,0,0-4.61H257.11a2.31,2.31,0,0,0-2.3,2.3A2.36,2.36,0,0,0,257.11,437Z"/><path class="cls-1" d="M286,437h14.46a2.31,2.31,0,0,0,0-4.61H286a2.31,2.31,0,0,0,0,4.61Z"/><path class="cls-1" d="M314.88,437h14.46a2.31,2.31,0,0,0,0-4.61H314.88a2.31,2.31,0,0,0-2.3,2.3A2.41,2.41,0,0,0,314.88,437Z"/><path class="cls-1" d="M441.28,437h0a18.57,18.57,0,0,0,4-.44,2.24,2.24,0,1,0-.94-4.38,15.32,15.32,0,0,1-3.09.28H430.42a2.31,2.31,0,1,0,0,4.61h10.86Z"/><path class="cls-1" d="M456.31,397.68a2.31,2.31,0,1,0,4.61,0V383.3a2.31,2.31,0,1,0-4.61,0Z"/><path class="cls-1" d="M456.31,417.4a15,15,0,0,1-2.08,7.62,2.25,2.25,0,0,0,.79,3.1,2.32,2.32,0,0,0,1.15.28,2.26,2.26,0,0,0,1.94-1.15,19.88,19.88,0,0,0,2.67-9.93v-5.25a2.31,2.31,0,0,0-4.61,0v5.33Z"/><path class="cls-1" d="M387.11,437a2.31,2.31,0,0,0,0-4.61H372.65a2.31,2.31,0,1,0,0,4.61Z"/><path class="cls-1" d="M416,437a2.31,2.31,0,0,0,0-4.61H401.57a2.31,2.31,0,1,0,0,4.61Z"/><path class="cls-1" d="M458.62,371.07a2.32,2.32,0,0,0,2.3-2.31V354.3a2.31,2.31,0,0,0-4.61,0v14.46A2.32,2.32,0,0,0,458.62,371.07Z"/><path class="cls-1" d="M98.19,175.17a2.32,2.32,0,0,0,2.3-2.3,2.28,2.28,0,0,0-2.3-2.31H83.73a2.32,2.32,0,0,0-2.3,2.31,2.27,2.27,0,0,0,2.3,2.3Z"/><path class="cls-1" d="M127,175.17a2.32,2.32,0,0,0,2.3-2.3,2.28,2.28,0,0,0-2.3-2.31H112.58a2.32,2.32,0,0,0-2.31,2.31,2.28,2.28,0,0,0,2.31,2.3Z"/><path class="cls-1" d="M441.28,170.64H430.42a2.32,2.32,0,0,0-2.31,2.3,2.28,2.28,0,0,0,2.31,2.3h10.86a14.64,14.64,0,0,1,3.09.29c.15,0,.29.07.43.07a2.23,2.23,0,0,0,2.23-1.8,2.18,2.18,0,0,0-1.72-2.66A15.09,15.09,0,0,0,441.28,170.64Z"/><path class="cls-1" d="M460.92,209.92a2.31,2.31,0,1,0-4.61,0v14.46a2.31,2.31,0,0,0,4.61,0Z"/><path class="cls-1" d="M460.92,190.28a19.34,19.34,0,0,0-2.73-9.93,2.26,2.26,0,0,0-3.89,2.3,15,15,0,0,1,2.09,7.63v5.25a2.3,2.3,0,0,0,4.6,0v-5.25Z"/><path class="cls-1" d="M271.5,175.17a2.32,2.32,0,0,0,2.3-2.3,2.28,2.28,0,0,0-2.3-2.31H257a2.32,2.32,0,0,0-2.31,2.31,2.28,2.28,0,0,0,2.31,2.3Z"/><path class="cls-1" d="M329.27,175.17a2.32,2.32,0,0,0,2.3-2.3,2.28,2.28,0,0,0-2.3-2.31H314.81a2.32,2.32,0,0,0-2.31,2.31,2.28,2.28,0,0,0,2.31,2.3Z"/><path class="cls-1" d="M360.49,172.94a2.31,2.31,0,0,0-2.3-2.3H343.73a2.32,2.32,0,0,0-2.31,2.3,2.28,2.28,0,0,0,2.31,2.3h14.46A2.42,2.42,0,0,0,360.49,172.94Z"/><path class="cls-1" d="M372.65,170.64a2.32,2.32,0,0,0-2.31,2.3,2.28,2.28,0,0,0,2.31,2.3h14.46a2.32,2.32,0,0,0,2.3-2.3,2.27,2.27,0,0,0-2.3-2.3Z"/><path class="cls-1" d="M300.42,175.17a2.32,2.32,0,0,0,2.3-2.3,2.28,2.28,0,0,0-2.3-2.31H286a2.32,2.32,0,0,0-2.31,2.31,2.28,2.28,0,0,0,2.31,2.3Z"/><path class="cls-1" d="M156,175.17a2.32,2.32,0,0,0,2.3-2.3,2.28,2.28,0,0,0-2.3-2.31H141.5a2.32,2.32,0,0,0-2.3,2.31,2.27,2.27,0,0,0,2.3,2.3Z"/><path class="cls-1" d="M401.5,170.64a2.32,2.32,0,0,0-2.31,2.3,2.28,2.28,0,0,0,2.31,2.3H416a2.32,2.32,0,0,0,2.3-2.3,2.27,2.27,0,0,0-2.3-2.3Z"/><path class="cls-1" d="M242.65,175.17a2.32,2.32,0,0,0,2.3-2.3,2.28,2.28,0,0,0-2.3-2.31H228.19a2.32,2.32,0,0,0-2.3,2.31,2.27,2.27,0,0,0,2.3,2.3Z"/><path class="cls-1" d="M184.88,175.17a2.32,2.32,0,0,0,2.3-2.3,2.28,2.28,0,0,0-2.3-2.31H170.42a2.32,2.32,0,0,0-2.3,2.31,2.27,2.27,0,0,0,2.3,2.3Z"/><path class="cls-1" d="M213.73,175.17a2.32,2.32,0,0,0,2.3-2.3,2.28,2.28,0,0,0-2.3-2.31H199.27a2.32,2.32,0,0,0-2.31,2.31,2.28,2.28,0,0,0,2.31,2.3Z"/><path class="cls-1" d="M40.42,432.5H33.3a2.31,2.31,0,1,0,0,4.61h7.12a2.32,2.32,0,0,0,2.3-2.3A2.37,2.37,0,0,0,40.42,432.5Z"/><path class="cls-1" d="M480.49,257.47h-81.3a44.33,44.33,0,0,0-44.31,44.32v4.1a44.33,44.33,0,0,0,44.31,44.31h74.53V432a21,21,0,0,1-20.93,20.94H43A21,21,0,0,1,22.07,432V175.67A21,21,0,0,1,43,154.74H452.79a21,21,0,0,1,20.93,20.93V246a4.54,4.54,0,0,0,9.07,0V175.67a30,30,0,0,0-30-30H442.14L395.52,32.08a13,13,0,0,0-17-7L84.52,145.6H43a30,30,0,0,0-30,30V432a30,30,0,0,0,30,30H452.79a30,30,0,0,0,30-30V349.91a10.55,10.55,0,0,0,8.2-10.28V267.9A10.46,10.46,0,0,0,480.49,257.47ZM216.82,145.67H170.06l180.36-74A29.17,29.17,0,0,0,382.5,85.82l7.12,17.41a4.47,4.47,0,0,0,5.9,2.44h0a4.46,4.46,0,0,0,2.45-5.9l-8.7-21.29A4.56,4.56,0,0,0,386.82,76a4.44,4.44,0,0,0-3.45,0,20,20,0,0,1-26.05-10.86c-.14-.29-.21-.58-.36-.86a4.5,4.5,0,0,0-2.44-2.59,4.78,4.78,0,0,0-3.6-.08l-204.82,84H108.4L382,33.37a4.08,4.08,0,0,1,3,0,3.83,3.83,0,0,1,2.09,2.16l45.18,110.14H321.06m160.87,194a1.45,1.45,0,0,1-1.44,1.44h-81.3a35.31,35.31,0,0,1-35.25-35.25v-4.1a35.31,35.31,0,0,1,35.25-35.26h81.3a1.45,1.45,0,0,1,1.44,1.44Z"/><path class="cls-1" d="M401.35,276.75a27.05,27.05,0,1,0,27,27.05A27.07,27.07,0,0,0,401.35,276.75Zm0,45.11a18,18,0,1,1,18-18A18,18,0,0,1,401.35,321.86Z"/><text class="cls-2" transform="translate(158.07 388.7)">£</text></svg>