<?xml version="1.0" encoding="utf-8"?>
<!-- Generator: Adobe Illustrator 22.0.1, SVG Export Plug-In . SVG Version: 6.00 Build 0)  -->
<svg version="1.1" id="Layer_1" xmlns="http://www.w3.org/2000/svg" xmlns:xlink="http://www.w3.org/1999/xlink" x="0px" y="0px"
	 viewBox="0 0 500 500" style="enable-background:new 0 0 500 500;" xml:space="preserve">
<style type="text/css">
	.st0{fill:#0FAFD4;}
	.st1{enable-background:new    ;}
</style>
<title>20180125 pricing</title>
<path class="st0" d="M401.9,133.1c0.7,1.7,2.3,2.8,4.2,2.9c0.6,0,1.2-0.1,1.7-0.4l0,0c2.3-0.9,3.4-3.5,2.5-5.8c0,0,0-0.1,0-0.1
	l-2.3-5.5c-0.9-2.3-3.5-3.4-5.8-2.5c0,0-0.1,0-0.1,0l0,0c-2.3,0.9-3.4,3.5-2.5,5.8c0,0,0,0.1,0,0.1L401.9,133.1z"/>
<path class="st0" d="M40.4,170.6h-7.1c-1.3,0-2.3,1-2.3,2.3c0,1.3,1,2.3,2.3,2.3c0,0,0,0,0.1,0h7.1c1.3,0,2.3-1,2.3-2.3
	S41.7,170.6,40.4,170.6z"/>
<path class="st0" d="M141.6,437H156c1.3-0.1,2.2-1.2,2.2-2.5c-0.1-1.2-1-2.1-2.2-2.2h-14.4c-1.3,0.1-2.2,1.2-2.2,2.5
	C139.5,436,140.4,436.9,141.6,437z"/>
<path class="st0" d="M112.7,437h14.5c1.3-0.1,2.2-1.2,2.2-2.5c-0.1-1.2-1-2.1-2.2-2.2h-14.5c-1.3,0-2.3,1-2.3,2.3
	C110.4,435.9,111.4,436.9,112.7,437z"/>
<path class="st0" d="M170.4,437h14.5c1.3-0.1,2.2-1.2,2.2-2.5c-0.1-1.2-1-2.1-2.2-2.2h-14.5c-1.3,0-2.3,1-2.3,2.3
	C168.2,435.9,169.2,436.9,170.4,437z"/>
<path class="st0" d="M69.3,175.2c1.3,0,2.3-1,2.3-2.3c0-1.3-1-2.3-2.2-2.3c0,0,0,0-0.1,0H54.9c-1.3,0-2.3,1-2.3,2.3
	c0,1.3,1,2.3,2.2,2.3c0,0,0,0,0.1,0H69.3z"/>
<path class="st0" d="M83.8,437h14.5c1.3-0.1,2.2-1.2,2.2-2.5c-0.1-1.2-1-2.1-2.2-2.2H83.8c-1.3,0.1-2.2,1.2-2.2,2.5
	C81.7,436,82.6,436.9,83.8,437z"/>
<path class="st0" d="M199.3,437h14.5c1.3-0.1,2.2-1.2,2.2-2.5c-0.1-1.2-1-2.1-2.2-2.2h-14.5c-1.3,0.1-2.2,1.2-2.2,2.5
	C197.3,436,198.2,436.9,199.3,437z"/>
<path class="st0" d="M54.9,437h14.5c1.3-0.1,2.2-1.2,2.2-2.5c-0.1-1.2-1-2.1-2.2-2.2H54.9c-1.3,0-2.3,1-2.3,2.3
	C52.6,435.9,53.6,437,54.9,437z"/>
<path class="st0" d="M228.2,437h14.5c1.3-0.1,2.2-1.2,2.2-2.5c-0.1-1.2-1-2.1-2.2-2.2h-14.5c-1.3,0-2.3,1-2.3,2.3
	C225.9,435.9,226.9,436.9,228.2,437z"/>
<path class="st0" d="M341.5,434.7c0,1.3,1,2.3,2.3,2.3h14.5c1.3-0.1,2.2-1.2,2.2-2.5c-0.1-1.2-1-2.1-2.2-2.2h-14.5
	C342.5,432.5,341.5,433.5,341.5,434.7z"/>
<path class="st0" d="M458.6,236.5c-1.3,0-2.3,1-2.3,2.3v14.5c0.1,1.3,1.2,2.2,2.5,2.2c1.2-0.1,2.1-1,2.2-2.2v-14.5
	C460.9,237.6,459.9,236.5,458.6,236.5z"/>
<path class="st0" d="M257.1,437h14.5c1.3-0.1,2.2-1.2,2.2-2.5c-0.1-1.2-1-2.1-2.2-2.2h-14.5c-1.3,0-2.3,1-2.3,2.3
	C254.8,436,255.8,437,257.1,437z"/>
<path class="st0" d="M286,437h14.5c1.3-0.1,2.2-1.2,2.2-2.5c-0.1-1.2-1-2.1-2.2-2.2H286c-1.3,0.1-2.2,1.2-2.2,2.5
	C283.9,436,284.8,436.9,286,437z"/>
<path class="st0" d="M314.9,437h14.5c1.3-0.1,2.2-1.2,2.2-2.5c-0.1-1.2-1-2.1-2.2-2.2h-14.5c-1.3,0-2.3,1-2.3,2.3
	C312.6,435.9,313.6,436.9,314.9,437z"/>
<path class="st0" d="M441.3,437L441.3,437c1.3,0,2.7-0.1,4-0.4c1.2-0.2,2-1.4,1.7-2.6c-0.2-1.2-1.4-2-2.6-1.7c0,0,0,0,0,0
	c-1,0.2-2.1,0.3-3.1,0.3h-10.8c-1.3-0.1-2.4,0.9-2.5,2.2s0.9,2.4,2.2,2.5c0.1,0,0.2,0,0.3,0L441.3,437L441.3,437z"/>
<path class="st0" d="M456.3,397.7c-0.1,1.3,0.9,2.4,2.2,2.5s2.4-0.9,2.5-2.2c0-0.1,0-0.2,0-0.3v-14.4c0.1-1.3-0.9-2.4-2.2-2.5
	s-2.4,0.9-2.5,2.2c0,0.1,0,0.2,0,0.3V397.7z"/>
<path class="st0" d="M456.3,417.4c0,2.7-0.7,5.3-2.1,7.6c-0.6,1.1-0.3,2.4,0.8,3.1c0,0,0,0,0,0c0.4,0.2,0.7,0.3,1.1,0.3
	c0.8,0,1.5-0.4,1.9-1.1c1.7-3,2.7-6.4,2.7-9.9v-5.3c-0.1-1.3-1.2-2.2-2.5-2.2c-1.2,0.1-2.1,1-2.2,2.2v5.3H456.3z"/>
<path class="st0" d="M387.1,437c1.3-0.1,2.2-1.2,2.2-2.5c-0.1-1.2-1-2.1-2.2-2.2h-14.5c-1.3-0.1-2.4,0.9-2.5,2.2s0.9,2.4,2.2,2.5
	c0.1,0,0.2,0,0.3,0H387.1z"/>
<path class="st0" d="M416,437c1.3-0.1,2.2-1.2,2.2-2.5c-0.1-1.2-1-2.1-2.2-2.2h-14.4c-1.3-0.1-2.4,0.9-2.5,2.2s0.9,2.4,2.2,2.5
	c0.1,0,0.2,0,0.3,0H416z"/>
<path class="st0" d="M458.6,371.1c1.3,0,2.3-1,2.3-2.3v-14.5c-0.1-1.3-1.2-2.2-2.5-2.2c-1.2,0.1-2.1,1-2.2,2.2v14.5
	C456.3,370,457.3,371.1,458.6,371.1z"/>
<path class="st0" d="M98.2,175.2c1.3,0,2.3-1,2.3-2.3c0-1.3-1-2.3-2.2-2.3c0,0,0,0-0.1,0H83.7c-1.3,0-2.3,1-2.3,2.3
	c0,1.3,1,2.3,2.2,2.3c0,0,0,0,0.1,0H98.2z"/>
<path class="st0" d="M127,175.2c1.3,0,2.3-1,2.3-2.3c0-1.3-1-2.3-2.2-2.3c0,0,0,0-0.1,0h-14.4c-1.3,0-2.3,1-2.3,2.3
	c0,1.3,1,2.3,2.3,2.3c0,0,0,0,0.1,0H127z"/>
<path class="st0" d="M441.3,170.6h-10.9c-1.3,0-2.3,1-2.3,2.3c0,1.3,1,2.3,2.3,2.3c0,0,0,0,0.1,0h10.9c1,0,2.1,0.1,3.1,0.3
	c0.1,0,0.3,0.1,0.4,0.1c1.1,0,2-0.7,2.2-1.8c0.3-1.2-0.4-2.3-1.6-2.6c0,0-0.1,0-0.1,0C444,170.8,442.6,170.6,441.3,170.6z"/>
<path class="st0" d="M460.9,209.9c0.1-1.3-0.9-2.4-2.2-2.5c-1.3-0.1-2.4,0.9-2.5,2.2c0,0.1,0,0.2,0,0.3v14.5
	c0.1,1.3,1.2,2.2,2.5,2.2c1.2-0.1,2.1-1,2.2-2.2V209.9z"/>
<path class="st0" d="M460.9,190.3c0-3.5-0.9-6.9-2.7-9.9c-0.7-1.1-2-1.4-3.1-0.7c-1,0.6-1.4,2-0.8,3c1.4,2.3,2.1,4.9,2.1,7.6v5.3
	c0,1.3,1,2.3,2.3,2.3c1.3,0,2.3-1,2.3-2.3L460.9,190.3L460.9,190.3z"/>
<path class="st0" d="M271.5,175.2c1.3,0,2.3-1,2.3-2.3c0-1.3-1-2.3-2.2-2.3c0,0,0,0-0.1,0H257c-1.3,0-2.3,1-2.3,2.3
	c0,1.3,1,2.3,2.3,2.3c0,0,0,0,0.1,0H271.5z"/>
<path class="st0" d="M329.3,175.2c1.3,0,2.3-1,2.3-2.3c0-1.3-1-2.3-2.2-2.3c0,0,0,0-0.1,0h-14.5c-1.3,0-2.3,1-2.3,2.3
	c0,1.3,1,2.3,2.3,2.3c0,0,0,0,0.1,0H329.3z"/>
<path class="st0" d="M360.5,172.9c0-1.3-1-2.3-2.3-2.3h-14.5c-1.3,0-2.3,1-2.3,2.3c0,1.3,1,2.3,2.3,2.3c0,0,0,0,0.1,0h14.5
	C359.4,175.2,360.4,174.2,360.5,172.9z"/>
<path class="st0" d="M372.6,170.6c-1.3,0-2.3,1-2.3,2.3c0,1.3,1,2.3,2.3,2.3c0,0,0,0,0.1,0h14.5c1.3,0,2.3-1,2.3-2.3
	c0-1.3-1-2.3-2.2-2.3c0,0,0,0-0.1,0H372.6z"/>
<path class="st0" d="M300.4,175.2c1.3,0,2.3-1,2.3-2.3c0-1.3-1-2.3-2.2-2.3c0,0,0,0-0.1,0H286c-1.3,0-2.3,1-2.3,2.3
	c0,1.3,1,2.3,2.3,2.3c0,0,0,0,0.1,0H300.4z"/>
<path class="st0" d="M156,175.2c1.3,0,2.3-1,2.3-2.3c0-1.3-1-2.3-2.2-2.3c0,0,0,0-0.1,0h-14.5c-1.3,0-2.3,1-2.3,2.3
	c0,1.3,1,2.3,2.2,2.3c0,0,0,0,0.1,0H156z"/>
<path class="st0" d="M401.5,170.6c-1.3,0-2.3,1-2.3,2.3c0,1.3,1,2.3,2.3,2.3c0,0,0,0,0.1,0H416c1.3,0,2.3-1,2.3-2.3
	c0-1.3-1-2.3-2.2-2.3c0,0,0,0-0.1,0H401.5z"/>
<path class="st0" d="M242.6,175.2c1.3,0,2.3-1,2.3-2.3c0-1.3-1-2.3-2.2-2.3c0,0,0,0-0.1,0h-14.5c-1.3,0-2.3,1-2.3,2.3
	c0,1.3,1,2.3,2.2,2.3c0,0,0,0,0.1,0H242.6z"/>
<path class="st0" d="M184.9,175.2c1.3,0,2.3-1,2.3-2.3c0-1.3-1-2.3-2.2-2.3c0,0,0,0-0.1,0h-14.5c-1.3,0-2.3,1-2.3,2.3
	c0,1.3,1,2.3,2.2,2.3c0,0,0,0,0.1,0H184.9z"/>
<path class="st0" d="M213.7,175.2c1.3,0,2.3-1,2.3-2.3c0-1.3-1-2.3-2.2-2.3c0,0,0,0-0.1,0h-14.5c-1.3,0-2.3,1-2.3,2.3
	c0,1.3,1,2.3,2.3,2.3c0,0,0,0,0.1,0H213.7z"/>
<path class="st0" d="M40.4,432.5h-7.1c-1.3-0.1-2.4,0.9-2.5,2.2c-0.1,1.3,0.9,2.4,2.2,2.5c0.1,0,0.2,0,0.3,0h7.1
	c1.3,0,2.3-1,2.3-2.3C42.7,433.6,41.7,432.5,40.4,432.5z"/>
<path class="st0" d="M480.5,257.5h-81.3c-24.5,0-44.3,19.8-44.3,44.3v4.1c0,24.5,19.8,44.3,44.3,44.3h74.5V432
	c0,11.5-9.4,20.9-20.9,20.9H43c-11.5,0-20.9-9.4-20.9-20.9V175.7c0-11.5,9.4-20.9,20.9-20.9h409.8c11.5,0,20.9,9.4,20.9,20.9V246
	c0.1,2.5,2.2,4.4,4.7,4.3c2.3-0.1,4.2-2,4.3-4.3v-70.3c0-16.6-13.4-30-30-30h-10.6L395.5,32.1c-2.8-6.6-10.4-9.8-17-7l-294,120.5H43
	c-16.6,0-30,13.4-30,30l0,0V432c0,16.6,13.4,30,30,30l0,0h409.8c16.6,0,30-13.4,30-30l0,0v-82.1c4.8-1.1,8.2-5.4,8.2-10.3v-71.7
	C491,262.1,486.3,257.5,480.5,257.5C480.5,257.5,480.5,257.5,480.5,257.5z M216.8,145.7h-46.8l180.4-74
	c6.3,11.3,19.4,17.1,32.1,14.2l7.1,17.4c0.9,2.3,3.5,3.4,5.8,2.5c0,0,0.1,0,0.1,0l0,0c2.3-0.9,3.4-3.5,2.5-5.8c0,0,0-0.1,0-0.1
	l-8.7-21.3c-0.5-1.1-1.3-2-2.4-2.5c-1.1-0.5-2.3-0.5-3.5,0c-10.2,4.2-21.8-0.7-26-10.9c-0.1-0.3-0.2-0.6-0.4-0.9
	c-0.4-1.2-1.3-2.1-2.4-2.6c-1.1-0.5-2.4-0.5-3.6-0.1l-204.8,84h-37.7L382,33.4c1-0.4,2-0.4,3,0c1,0.4,1.7,1.2,2.1,2.2l45.2,110.1
	H321.1 M481.9,339.7c0,0.8-0.6,1.4-1.4,1.4h-81.3c-19.5,0-35.2-15.8-35.3-35.3v-4.1c0-19.5,15.8-35.2,35.3-35.3h81.3
	c0.8,0,1.4,0.6,1.4,1.4V339.7z"/>
<path class="st0" d="M401.4,276.8c-14.9,0-27.1,12.1-27.1,27c0,14.9,12.1,27.1,27,27.1s27.1-12.1,27.1-27c0,0,0,0,0,0
	C428.3,288.9,416.3,276.8,401.4,276.8z M401.4,321.9c-9.9,0-18-8.1-18-18s8.1-18,18-18s18,8.1,18,18S411.3,321.9,401.4,321.9z"/>
<g class="st1">
	<path class="st0" d="M169.5,299h15.6c-7.7-12.1-13.6-25-13.6-39.9c0-35.4,28-51.1,56.5-51.1c36.7,0,58.3,22.1,57.5,58.7h-15.6
		c0-26.8-14.1-45.6-41.9-45.6c-20.8,0-40.9,12.4-40.9,38.9c0,17.4,8.7,24.3,14.6,38.9h39.7v7.9h-35.2c3.7,5.9,5.9,17.1,5.9,24
		c0,18.3-13.6,34.7-27.3,45.1l0.5,0.5c7.2-3.7,15.4-7.4,24-7.4c10.9,0,18.6,2.2,25.3,5c6.9,2.7,13.1,5.2,21.3,5.2
		c10.7,0,21.6-6.2,28.5-13.9l7.9,11.9c-10.9,9.7-21.3,15.1-36.2,15.1c-21.6,0-31.2-10.2-51.3-10.2c-12.6,0-17.4,4.2-27.3,10.2
		l-8.9-13.4c14.6-12.1,27.8-26.3,27.8-46.1c0-7.7-3-19.3-6.9-26h-20.1V299z"/>
</g>
</svg>
