<svg id="Layer_1" data-name="Layer 1" xmlns="http://www.w3.org/2000/svg" viewBox="0 0 500 500"><defs><style>.cls-1,.cls-3{fill:#0fafd4;}.cls-2{fill:#fff;stroke:#0fafd4;stroke-miterlimit:10;stroke-width:7px;}.cls-3{font-size:72.3px;font-family:Roboto-Bold, Roboto;font-weight:700;}.cls-4{letter-spacing:-0.01em;}.cls-5{letter-spacing:0em;}</style></defs><title>20180125 seller</title><path class="cls-1" d="M290.19,310.41H273.82V306.1h59a5.89,5.89,0,0,0,6-6V226.83A36.73,36.73,0,0,0,353.53,198a35.49,35.49,0,0,0-14.65-28.86V92.41a35.67,35.67,0,0,0-35.76-35.76h-1.29A48.5,48.5,0,0,0,253.57,14H194.12c-50,0-90.9,40.93-90.9,90.9v70.23a35.93,35.93,0,0,0,0,45.67v79.27a5.88,5.88,0,0,0,6,6h65.48v4.31H158.36a83.2,83.2,0,0,0-83.15,83.15v76.25a5.9,5.9,0,0,0,6,6H366.88a5.89,5.89,0,0,0,6-6V393.56C373.34,347.46,335.86,310.41,290.19,310.41Zm-65.91-9.05c-11.2,0-34.9-12.92-65.49-35.33a46.51,46.51,0,0,1-18.95-37V167.81h10.34a93.93,93.93,0,0,0,87.88-60.32c9.48,30.59,37.49,53,70.66,53.85V229a45.31,45.31,0,0,1-19,37C259.17,288.44,235.48,301.36,224.28,301.36Zm117.18-103a24.09,24.09,0,0,1-20.68,23.7V174.7C332.42,176,341.46,186.33,341.46,198.39Zm-234.37,0a24.1,24.1,0,0,1,20.68-23.69v47.39A24.1,24.1,0,0,1,107.09,198.39Zm73.67,124.08a5.89,5.89,0,0,0,6-6V299.21q24.55,14.22,37.48,14.21t37.48-14.21v17.23a5.88,5.88,0,0,0,6,6h8.62l-12.5,31.88c-26.71,13.36-52.56,13.36-78.84,0l-12.92-31.88Z"/><rect class="cls-2" x="249.06" y="231.66" width="205.73" height="161.72" rx="12" ry="12"/><rect class="cls-2" x="342.57" y="393.39" width="18.7" height="94.61"/><text class="cls-3" transform="translate(297.52 303.85)"><tspan class="cls-4">F<tspan class="cls-5" x="38.87" y="0">or</tspan></tspan><tspan x="-14.03" y="69.29">sale</tspan></text></svg>