<?xml version="1.0" encoding="utf-8"?>
<!-- Generator: Adobe Illustrator 22.0.1, SVG Export Plug-In . SVG Version: 6.00 Build 0)  -->
<svg version="1.1" id="Layer_1" xmlns="http://www.w3.org/2000/svg" xmlns:xlink="http://www.w3.org/1999/xlink" x="0px" y="0px"
	 viewBox="0 0 500 500" style="enable-background:new 0 0 500 500;" xml:space="preserve">
<style type="text/css">
	.st0{fill:#0FAFD4;}
	.st1{fill:none;stroke:#0FAFD4;stroke-width:7;stroke-miterlimit:10;}
	.st2{enable-background:new    ;}
</style>
<title>20180125 seller</title>
<path class="st0" d="M343.9,460.3c0.2-1,0.5-2,0.9-3.1c-1.9-1.5-3.2-3.8-3.2-6.6c0-2.9,0.2-5.8,1.1-8.5c1.2-13.7-1.2-27.7,0.5-41.5
	c0.2-1.7,0.8-3.4,1.6-4.8c-1.9-0.1-3.7-0.2-5.6-0.2c-2,0-3.4-1-4.2-2.4c-3.1,0.3-6.2,0.7-8.8,0.9c-5.3,0.4-10.7,0.1-16,0.4
	c-6.8,0.4-13.5,1-20.3,1.1c-0.4,0-0.8-0.1-1.2-0.1c-5.7,0.3-11.2,0.6-16.1-2.6c-1.8-0.2-3.5-0.5-5.1-1.1c-4.6-0.1-9.3-0.3-13.9-0.9
	c-2.8-0.3-4.9-2.1-5-5c-0.1-5.2,0.7-10.3,0.8-15.5c-0.1-1.1-0.2-2.3-0.2-3.5c0-1.1,0-2.1,0.1-3.2c0.1-1.2,0.2-2.5,0.4-3.6
	c-21.8,7.2-43.2,5.3-64.9-5.8l-12.9-31.9h8.7c3.3,0.1,5.9-2.5,6-5.8c0-0.1,0-0.1,0-0.2v-17.2c16.4,9.5,28.9,14.2,37.5,14.2
	c6.3,0,14.7-2.6,25.2-7.7c-0.3-0.6-0.5-1.4-0.5-2.2c0-3.6-0.2-7.3-0.3-10.9c-10.6,5.7-19,8.7-24.4,8.7c-11.2,0-34.9-12.9-65.5-35.3
	c-11.8-8.7-18.8-22.4-19-37v-61.2h10.3c39,0.1,73.9-23.9,87.9-60.3c9.5,30.6,37.5,53,70.7,53.8V229c0,0.9,0,1.8-0.1,2.7
	c10-1.4,20.1-1.6,30.2-1.1v-3.8c9.1-6.8,14.5-17.5,14.7-28.8c0-11.4-5.4-22.2-14.7-28.9V92.4c0-19.7-15.9-35.7-35.6-35.8
	c-0.1,0-0.1,0-0.2,0h-1.3c-3-24.4-23.7-42.7-48.3-42.6h-59.5c-50,0-90.9,40.9-90.9,90.9v70.2c-10.9,13.3-10.9,32.4,0,45.7v79.3
	c-0.1,3.2,2.5,5.9,5.8,6c0.1,0,0.2,0,0.2,0h65.5v4.3h-16.3c-45.9,0-83.1,37.2-83.1,83.1v76.3c-0.1,3.3,2.5,5.9,5.8,6
	c0.1,0,0.1,0,0.2,0H343C342.6,470.6,342.9,465.4,343.9,460.3z M320.8,174.7c11.6,1.3,20.7,11.6,20.7,23.7
	c-0.1,11.9-8.9,22-20.7,23.7V174.7z M127.8,222.1c-11.8-1.7-20.6-11.8-20.7-23.7v0c0.1-11.9,8.9-22,20.7-23.7V222.1z"/>
<path class="st0" d="M359,392.8c-0.1,0.4-0.3,0.9-0.5,1.3c1.9,1.7,3.2,4,2.9,6.5c-1.8,13.9,0,27.8-0.8,41.6c0.8,2.3,2.2,4.3,2.7,6.8
	c0.7,3.8,0,7.5-0.8,11.2c-1.2,5.3-1.7,10.3-1.4,15.6h5.8c3.3,0.1,5.9-2.5,6-5.8c0-0.1,0-0.1,0-0.2v-74.9
	C368.3,394.3,363.6,393.5,359,392.8z"/>
<path class="st1" d="M261.1,231.7h181.7c6.6,0,12,5.4,12,12v137.7c0,6.6-5.4,12-12,12H261.1c-6.6,0-12-5.4-12-12V243.7
	C249.1,237,254.4,231.7,261.1,231.7z"/>
<rect x="342.6" y="393.4" class="st1" width="18.7" height="94.6"/>
<g class="st2">
	<path class="st0" d="M306.3,246h34.4v4.4h-29.3V270h26v4.4h-26v25.8h-5.2V246z"/>
	<path class="st0" d="M380.6,280.7c0,11.2-6.6,20.7-18.5,20.7s-18.5-9.5-18.5-20.7c0-11.2,6.6-20.7,18.5-20.7
		S380.6,269.4,380.6,280.7z M348.3,280.7c0,8.3,4.6,16.7,13.8,16.7c9.1,0,13.8-8.4,13.8-16.7c0-8.3-4.6-16.7-13.8-16.7
		C352.9,263.9,348.3,272.4,348.3,280.7z"/>
	<path class="st0" d="M387,261h4.4v9.2h0.2c2.4-6.4,7.8-10,14.8-9.7v4.8c-8.7-0.4-14.6,5.9-14.6,14.1v20.9H387V261z"/>
</g>
<g class="st2">
	<path class="st0" d="M316.9,345.4c-0.2-5.9-4.8-8.6-10.3-8.6c-4.3,0-9.3,1.7-9.3,6.8c0,4.2,4.8,5.8,8.1,6.6l6.4,1.4
		c5.5,0.8,11.2,4,11.2,10.9c0,8.5-8.4,11.8-15.7,11.8c-9.2,0-15.3-4.2-16.1-13.8h4.8c0.4,6.5,5.2,9.8,11.6,9.8
		c4.6,0,10.7-2,10.7-7.4c0-4.6-4.3-6.1-8.6-7.1l-6.2-1.4c-6.2-1.6-10.9-3.9-10.9-10.5c0-8,7.8-11,14.7-11c7.9,0,14,4.1,14.4,12.6
		H316.9z"/>
	<path class="st0" d="M329.5,345.9c0.5-9.2,6.8-13.1,15.9-13.1c6.9,0,14.4,2.1,14.4,12.6v20.8c0,1.9,0.9,2.9,2.8,2.9
		c0.5,0,1-0.1,1.5-0.3v4c-1.1,0.2-1.8,0.3-3.1,0.3c-4.9,0-5.6-2.8-5.6-6.8h-0.2c-3.4,5.1-6.7,8-14.3,8c-7.3,0-13.1-3.6-13.1-11.5
		c0-10.9,10.7-11.4,21.1-12.6c4-0.4,6.2-1.1,6.2-5.3c0-6.5-4.6-8.1-10.3-8.1c-6,0-10.3,2.7-10.5,9.1H329.5z M355.1,351.7h-0.2
		c-0.6,1.1-2.7,1.5-4,1.7c-8.1,1.4-18.2,1.4-18.2,9c0,4.8,4.2,7.8,8.7,7.8c7.4,0,13.7-4.6,13.7-12.3V351.7z"/>
	<path class="st0" d="M369.5,318.8h4.8v54.3h-4.8V318.8z"/>
	<path class="st0" d="M386.3,354.8c0,7,3.8,15.4,12.9,15.4c7,0,10.8-4,12.3-10h4.8c-2.1,8.9-7.1,14.1-17.1,14.1
		c-12.5,0-17.7-9.6-17.7-20.7c0-10.3,5.2-20.7,17.7-20.7c12.5,0,17.6,11,17.3,22H386.3z M411.7,350.8c-0.2-7.2-4.8-14-12.5-14
		c-7.9,0-12.1,6.8-12.9,14H411.7z"/>
</g>
</svg>
