<svg id="Layer_1" data-name="Layer 1" xmlns="http://www.w3.org/2000/svg" viewBox="0 0 500 500"><defs><style>.cls-1{fill:#0fafd4;}</style></defs><title>20180125 stripe</title><path class="cls-1" d="M118.34,272.68H46a10.75,10.75,0,0,0-10.73,10.74v15.33A10.75,10.75,0,0,0,46,309.49h72.3a10.75,10.75,0,0,0,10.74-10.74V283.42A10.75,10.75,0,0,0,118.34,272.68ZM120,298.75a1.62,1.62,0,0,1-1.61,1.61H46a1.62,1.62,0,0,1-1.6-1.61V283.42a1.62,1.62,0,0,1,1.6-1.61h72.3a1.62,1.62,0,0,1,1.61,1.61Z"/><path class="cls-1" d="M231.17,272.68h-72.3a10.75,10.75,0,0,0-10.73,10.74v15.33a10.75,10.75,0,0,0,10.73,10.74h72.3a10.75,10.75,0,0,0,10.74-10.74V283.42A10.81,10.81,0,0,0,231.17,272.68Zm1.61,26.07a1.62,1.62,0,0,1-1.61,1.61h-72.3a1.62,1.62,0,0,1-1.6-1.61V283.42a1.62,1.62,0,0,1,1.6-1.61h72.3a1.62,1.62,0,0,1,1.61,1.61Z"/><path class="cls-1" d="M343.93,272.68h-72.3a10.75,10.75,0,0,0-10.74,10.74v15.33a10.75,10.75,0,0,0,10.74,10.74h72.3a10.75,10.75,0,0,0,10.73-10.74V283.42A10.75,10.75,0,0,0,343.93,272.68Zm1.6,26.07a1.62,1.62,0,0,1-1.6,1.61h-72.3a1.62,1.62,0,0,1-1.61-1.61V283.42a1.62,1.62,0,0,1,1.61-1.61h72.3a1.62,1.62,0,0,1,1.6,1.61Z"/><path class="cls-1" d="M373.72,283.42v15.33a10.75,10.75,0,0,0,10.74,10.74h72.3a10.75,10.75,0,0,0,10.73-10.74V283.42a10.75,10.75,0,0,0-10.73-10.74h-72.3A10.75,10.75,0,0,0,373.72,283.42Zm84.64,0v15.33a1.62,1.62,0,0,1-1.6,1.61h-72.3a1.62,1.62,0,0,1-1.61-1.61V283.42a1.62,1.62,0,0,1,1.61-1.61h72.3A1.62,1.62,0,0,1,458.36,283.42Z"/><path class="cls-1" d="M449.89,107.27H364.3a10.25,10.25,0,0,0-10.22,10.23v27a10.25,10.25,0,0,0,10.22,10.22h85.59a10.25,10.25,0,0,0,10.22-10.22v-27A10.16,10.16,0,0,0,449.89,107.27Zm1,37.17a1,1,0,0,1-1,1H364.3a1,1,0,0,1-1-1v-27a1,1,0,0,1,1-1h85.59a1,1,0,0,1,1,1Z"/><path class="cls-1" d="M477.71,83.54H25.09A16.3,16.3,0,0,0,8.8,99.82V370.18a16.3,16.3,0,0,0,16.29,16.28H477.71A16.3,16.3,0,0,0,494,370.18V99.82A16.3,16.3,0,0,0,477.71,83.54Zm7.09,167.23H455.51a4.61,4.61,0,0,0,0,9.21H484.8v110.2a7.13,7.13,0,0,1-7.09,7.08H25.09A7.13,7.13,0,0,1,18,370.18V260.05H415a4.6,4.6,0,0,0,0-9.2H18v-151a7.13,7.13,0,0,1,7.09-7.08H477.71a7.13,7.13,0,0,1,7.09,7.08Z"/><path class="cls-1" d="M139.81,178.4H73.28a12.1,12.1,0,0,0-12.12,12.13v36.88a12.1,12.1,0,0,0,12.12,12.12h66.53a12.1,12.1,0,0,0,12.13-12.12V190.53A12.19,12.19,0,0,0,139.81,178.4ZM70.29,190.53a3,3,0,0,1,3-3h2.85v11H70.29Zm0,10.66H80.88a7.67,7.67,0,1,1,0,15.33H70.29Zm3,29.28a3,3,0,0,1-3-3v-8.25h5.84v11.24Zm5.48,0V219.23h2a10.3,10.3,0,0,0,0-20.6h-2v-11.1h55.5v11h-2a10.3,10.3,0,1,0,0,20.59h2V230.4H78.76Zm64.05-3.06a3,3,0,0,1-3,3H137V219.15h5.85Zm0-10.81H132.22a7.67,7.67,0,1,1,0-15.34h10.59Zm0-18H137v-11h2.85a3,3,0,0,1,3,3Z"/></svg>