<?xml version="1.0" encoding="utf-8"?>
<!-- Generator: Adobe Illustrator 22.0.1, SVG Export Plug-In . SVG Version: 6.00 Build 0)  -->
<svg version="1.1" id="Layer_1" xmlns="http://www.w3.org/2000/svg" xmlns:xlink="http://www.w3.org/1999/xlink" x="0px" y="0px"
	 viewBox="0 0 500 500" style="enable-background:new 0 0 500 500;" xml:space="preserve">
<style type="text/css">
	.st0{fill:#0FAFD4;}
</style>
<title>20180125 website</title>
<path class="st0" d="M458.3,282.5L458.3,282.5c2.6,0,4.7-2.1,4.7-4.6c0,0,0,0,0-0.1V67.3c0-2.6-2.1-4.7-4.7-4.7c0,0,0,0,0,0h-416
	c-2.6,0-4.7,2.1-4.7,4.7c0,0,0,0,0,0v239c0,2.6,2.1,4.7,4.6,4.7c0,0,0,0,0.1,0h282.2c2.6,0,4.7-2.1,4.7-4.7s-2.1-4.7-4.7-4.7H47V72
	h406.6v205.8C453.6,280.4,455.7,282.5,458.3,282.5z"/>
<path class="st0" d="M473.6,31.8H27.1c-12.9,0-23.4,10.5-23.4,23.4v300.2c0,12.9,10.5,23.4,23.4,23.4h175.2l-4.7,35.5h-24.9
	c-2.6,0-4.7,2.1-4.7,4.6c0,0,0,0,0,0.1v20.3c0,2.6,2.1,4.7,4.6,4.7c0,0,0,0,0.1,0h155.6c2.6,0,4.7-2.1,4.7-4.7c0,0,0,0,0,0V419
	c0-2.6-2.1-4.7-4.6-4.7c0,0,0,0,0,0h-24.9l-4.7-35.5h24.6c2.6,0,4.7-2.1,4.7-4.7s-2.1-4.7-4.7-4.7H27.1c-7.7,0-14-6.3-14-14v-13.6
	h315.1c2.6,0,4.7-2.1,4.7-4.6c0,0,0,0,0,0l0,0c0-2.6-2.1-4.7-4.6-4.7c0,0,0,0,0,0H13.1V55.2c0-7.7,6.3-14,14-14l0,0h446.6
	c7.7,0,14,6.3,14,14v277.2h-25.9c-2.6,0-4.7,2.1-4.7,4.6c0,0,0,0,0,0l0,0c0,2.6,2.1,4.7,4.6,4.7c0,0,0,0,0,0h25.8v13.5
	c0,4-1.7,7.8-4.7,10.4c-1.7,1.6-2.1,4.2-0.7,6.2c0.1,0.2,0.3,0.3,0.4,0.5c1.7,1.9,4.7,2.1,6.6,0.4c5-4.4,7.8-10.8,7.8-17.4V55.2
	c0-12.9-10.4-23.4-23.3-23.4C473.7,31.8,473.6,31.8,473.6,31.8z M211.7,378.8h77.2l4.7,35.5h-48.5c-2.6,0-4.7,2.1-4.7,4.7
	s2.1,4.7,4.7,4.7h78.3v10.8H177.3v-10.8h39.3c2.6,0,4.7-2.1,4.7-4.7s-2.1-4.7-4.7-4.7h-9.5L211.7,378.8z"/>
<path class="st0" d="M480.1,372.9l-35.8-35.8l-1.9-1.9c-1.1-1.1-1.1-2.9,0-4l25.1-25.1c3.5-3.5,4.6-8.8,2.7-13.4
	c-1.9-4.6-6.4-7.6-11.3-7.6H350.3c-6.8,0-12.3,5.5-12.3,12.3v108.5c0,6.8,5.5,12.3,12.3,12.2c3.3,0,6.4-1.3,8.7-3.6l25.1-25.1
	c1.1-1.1,3-1.1,4.1,0l51.1,51.1c2.3,2.3,5.5,3.6,8.7,3.6c3.3,0,6.4-1.3,8.7-3.6l36.8-36.8c4.8-4.8,4.8-12.6,0-17.4L480.1,372.9z
	 M486.8,396.9L450,433.7c-1.1,1.1-2.9,1.1-4,0l-51.1-51.1c-2.3-2.3-5.4-3.6-8.7-3.6c-3.3,0-6.4,1.3-8.7,3.6l-25.1,25.1
	c-1.1,1.1-3,1.1-4.1,0c-0.5-0.5-0.8-1.3-0.8-2V297.3c0-1.6,1.3-2.9,2.9-2.9h108.4c1.2,0,2.2,0.7,2.7,1.8c0.5,1.1,0.2,2.3-0.6,3.1
	l-25.1,25.1c-2.3,2.3-3.6,5.4-3.6,8.7c0,3.3,1.3,6.4,3.6,8.7l51.1,51.1C487.9,394.1,487.9,395.8,486.8,396.9L486.8,396.9z"/>
<g>
	<path class="st0" d="M98.5,151.3h8.1l18.1,69.8h0.2l19.4-69.8h9.5l19.5,69.8h0.2l18.2-69.8h7.6l-22,79.7h-8l-20.2-71.3h-0.2
		L128.8,231h-8.3L98.5,151.3z"/>
	<path class="st0" d="M199.7,151.3h8.1l18.1,69.8h0.2l19.4-69.8h9.5l19.5,69.8h0.2l18.2-69.8h7.6l-22,79.7h-8l-20.2-71.3h-0.2
		L230.1,231h-8.3L199.7,151.3z"/>
	<path class="st0" d="M300.9,151.3h8.1l18.1,69.8h0.2l19.4-69.8h9.5l19.5,69.8h0.2l18.2-69.8h7.6l-22,79.7h-8l-20.2-71.3h-0.2
		L331.3,231H323L300.9,151.3z"/>
</g>
</svg>
