<svg id="Layer_1" data-name="Layer 1" xmlns="http://www.w3.org/2000/svg" viewBox="0 0 500 500"><defs><style>.cls-1{fill:#0fafd4;}</style></defs><title>20180125 website</title><path class="cls-1" d="M458.32,282.47h0a4.67,4.67,0,0,0,4.7-4.69V67.32a4.68,4.68,0,0,0-4.7-4.69h-416a4.68,4.68,0,0,0-4.7,4.69v239a4.67,4.67,0,0,0,4.7,4.69H324.5a4.69,4.69,0,1,0,0-9.38H47V72H453.63V277.78A4.72,4.72,0,0,0,458.32,282.47Z"/><polygon class="cls-1" points="352.43 182.08 364.71 227.74 381.99 227.74 403.81 161.68 386.61 161.68 373.87 210.31 360.92 161.68 344.53 161.68 331.87 210.31 318.91 161.68 301.71 161.68 300.97 161.68 284.58 161.68 271.77 210.31 258.89 161.68 242.43 161.68 229.77 210.31 216.89 161.68 199.69 161.68 198.94 161.68 182.48 161.68 169.75 210.31 156.79 161.68 140.33 161.68 127.75 210.31 114.79 161.68 96.84 161.68 118.44 227.74 135.86 227.74 148.3 182.08 160.59 227.74 177.87 227.74 199.31 162.79 220.54 227.74 237.89 227.74 250.4 182.08 262.61 227.74 279.96 227.74 301.34 162.79 322.64 227.74 339.99 227.74 352.43 182.08"/><path class="cls-1" d="M473.59,31.8H27.06A23.42,23.42,0,0,0,3.68,55.18v300.2a23.42,23.42,0,0,0,23.38,23.38H202.22l-4.69,35.53H172.58a4.66,4.66,0,0,0-4.69,4.69v20.25a4.67,4.67,0,0,0,4.69,4.7H328.15a4.68,4.68,0,0,0,4.69-4.7V419a4.67,4.67,0,0,0-4.69-4.69H303.2l-4.69-35.53h24.65a4.69,4.69,0,0,0,0-9.38H27.06a14,14,0,0,1-14-14V341.75H328.15a4.67,4.67,0,0,0,4.69-4.69h0a4.67,4.67,0,0,0-4.69-4.69H13.06V55.18a14,14,0,0,1,14-14H473.67a14,14,0,0,1,14,14V332.37H461.82a4.67,4.67,0,0,0-4.69,4.69h0a4.67,4.67,0,0,0,4.69,4.69h25.77V355.3a14,14,0,0,1-4.69,10.43,4.77,4.77,0,0,0-.74,6.18,4.17,4.17,0,0,1,.37.52,4.71,4.71,0,0,0,6.63.38A23.39,23.39,0,0,0,497,355.38V55.18A23.33,23.33,0,0,0,473.59,31.8Zm-261.92,347H288.9l4.69,35.53H245.11a4.69,4.69,0,0,0,0,9.38h78.27v10.8H177.27v-10.8h39.32a4.69,4.69,0,0,0,0-9.38h-9.53Z"/><path class="cls-1" d="M480.07,372.88l-35.82-35.82-1.94-1.94a2.87,2.87,0,0,1,0-4l25.1-25.1a12.39,12.39,0,0,0,2.68-13.4,12.23,12.23,0,0,0-11.32-7.6H350.34a12.3,12.3,0,0,0-12.29,12.29V405.8a12.29,12.29,0,0,0,21,8.63l25.1-25.09a2.92,2.92,0,0,1,4.1,0l51.08,51.09a12.2,12.2,0,0,0,8.72,3.57,12.44,12.44,0,0,0,8.71-3.57l36.79-36.79a12.42,12.42,0,0,0,0-17.43Zm6.7,24.05L450,433.72a2.87,2.87,0,0,1-4,0l-51.09-51.08a12.19,12.19,0,0,0-8.71-3.58,12.45,12.45,0,0,0-8.71,3.58l-25.1,25.09a2.89,2.89,0,0,1-4.91-2.08V297.29a2.9,2.9,0,0,1,2.9-2.9H458.77a2.87,2.87,0,0,1,2.68,1.78,2.79,2.79,0,0,1-.59,3.13l-25.1,25.1a12.15,12.15,0,0,0-3.58,8.71,12.43,12.43,0,0,0,3.58,8.72l51.09,51.08A2.9,2.9,0,0,1,486.77,396.93Z"/></svg>